<?xml version="1.0" encoding="UTF-8" standalone="no"?>
<svg width="553px" height="71px" viewBox="0 0 553 71" version="1.1" xmlns="http://www.w3.org/2000/svg" xmlns:xlink="http://www.w3.org/1999/xlink" xmlns:sketch="http://www.bohemiancoding.com/sketch/ns">
    <!-- Generator: Sketch 3.3.3 (12072) - http://www.bohemiancoding.com/sketch -->
    <title>Artboard 1</title>
    <desc>Created with Sketch.</desc>
    <defs></defs>
    <g id="Page-1" stroke="none" stroke-width="1" fill="none" fill-rule="evenodd" sketch:type="MSPage">
        <g id="Artboard-1" sketch:type="MSArtboardGroup">
            <g id="Aa----+-Heading,--+-300-Open-Sans-40px" sketch:type="MSLayerGroup" transform="translate(13.000000, 23.000000)">
                <path d="M69.8002481,0.729161891 L69.8002481,25.0322821 L73.0338566,25.0322821 L73.0338566,13.9018615 L85.8321384,13.9018615 L85.8321384,25.0322821 L89.0657468,25.0322821 L89.0657468,0.729161891 L85.8321384,0.729161891 L85.8321384,11.1788228 L73.0338566,11.1788228 L73.0338566,0.729161891 L69.8002481,0.729161891 Z M105.710521,14.5485832 L95.6012396,14.5485832 C95.6466238,13.8678201 95.7941203,13.2267778 96.0437334,12.6254371 C96.2933465,12.0240964 96.633723,11.4965129 97.0648729,11.0426709 C97.4960229,10.5888288 98.0122604,10.2314336 98.6136012,9.97047441 C99.2149419,9.70951523 99.8900218,9.5790376 100.638861,9.5790376 C101.365008,9.5790376 102.028742,9.70951523 102.630083,9.97047441 C103.231424,10.2314336 103.753334,10.5831559 104.19583,11.0256519 C104.638326,11.4681479 104.990049,11.9957314 105.251008,12.6084181 C105.511967,13.2211049 105.665137,13.8678201 105.710521,14.5485832 L105.710521,14.5485832 Z M108.501635,19.4500528 L105.642445,19.4500528 C105.392832,20.60735 104.876594,21.469637 104.093717,22.0369396 C103.310839,22.6042421 102.306728,22.8878891 101.081355,22.8878891 C100.128287,22.8878891 99.3000373,22.7290468 98.5965822,22.4113574 C97.893127,22.0936679 97.3144871,21.6681974 96.860645,21.134933 C96.406803,20.6016686 96.0777724,19.988991 95.8735435,19.2968819 C95.6693146,18.6047728 95.5785475,17.8729634 95.6012396,17.1014319 L108.773939,17.1014319 C108.819323,16.0349031 108.722883,14.9116609 108.484616,13.7316716 C108.246349,12.5516823 107.815206,11.4624777 107.191173,10.4640252 C106.56714,9.46557266 105.738891,8.64299628 104.7064,7.99627136 C103.67391,7.34954644 102.374806,7.02618883 100.809051,7.02618883 C99.6063697,7.02618883 98.5001463,7.25310646 97.4903477,7.7069485 C96.4805491,8.16079055 95.6069163,8.79615989 94.869423,9.61307558 C94.1319297,10.4299913 93.5589627,11.3943912 93.1505048,12.5063042 C92.742047,13.6182172 92.5378211,14.8435723 92.5378211,16.1824064 C92.5832053,17.5212404 92.7817582,18.7579415 93.1334858,19.8925466 C93.4852134,21.0271517 94.0127969,22.0028975 94.7162521,22.8198132 C95.4197072,23.6367289 96.2876671,24.2720982 97.3201578,24.7259402 C98.3526485,25.1797823 99.5723307,25.4066999 100.979241,25.4066999 C102.976146,25.4066999 104.632645,24.9074811 105.948787,23.9090286 C107.264929,22.9105761 108.11587,21.4242657 108.501635,19.4500528 L108.501635,19.4500528 Z M126.950422,24.9642061 C126.451196,25.2592035 125.759097,25.4066999 124.874105,25.4066999 C124.125266,25.4066999 123.529607,25.1968011 123.087111,24.7769972 C122.644615,24.3571933 122.423371,23.6707675 122.423371,22.7176992 C121.629147,23.6707675 120.704458,24.3571933 119.649275,24.7769972 C118.594092,25.1968011 117.453831,25.4066999 116.228458,25.4066999 C115.434234,25.4066999 114.679733,25.3159329 113.964932,25.134396 C113.25013,24.9528592 112.63178,24.6692122 112.109862,24.2834465 C111.587943,23.8976807 111.173819,23.392789 110.867475,22.7687562 C110.561132,22.1447234 110.407962,21.3902223 110.407962,20.5052303 C110.407962,19.5067778 110.578151,18.6898744 110.918532,18.0544955 C111.258914,17.4191166 111.707076,16.902879 112.263033,16.5057672 C112.818989,16.1086554 113.454358,15.8079896 114.16916,15.6037607 C114.883961,15.3995318 115.61577,15.2293435 116.36461,15.0931909 C117.158833,14.9343462 117.913334,14.8152145 118.628135,14.7357921 C119.342937,14.6563697 119.972633,14.5429109 120.517244,14.3954123 C121.061854,14.2479136 121.492997,14.0323419 121.810687,13.7486906 C122.128376,13.4650393 122.287219,13.0509146 122.287219,12.5063042 C122.287219,11.8709253 122.168087,11.3603607 121.92982,10.9745949 C121.691553,10.5888292 121.385214,10.2938363 121.010794,10.0896073 C120.636375,9.88537843 120.216577,9.74922785 119.751389,9.68115155 C119.286201,9.61307524 118.826693,9.5790376 118.372851,9.5790376 C117.147477,9.5790376 116.126348,9.81162816 115.309432,10.2768163 C114.492516,10.7420044 114.050027,11.6213101 113.981951,12.91476 L111.088722,12.91476 C111.134106,11.8255391 111.361024,10.9065227 111.769482,10.1576833 C112.17794,9.40884393 112.722542,8.8018393 113.403305,8.3366512 C114.084068,7.8714631 114.861261,7.53675961 115.734907,7.33253069 C116.608553,7.12830176 117.544588,7.02618883 118.54304,7.02618883 C119.337264,7.02618883 120.125803,7.08291824 120.90868,7.19637875 C121.691558,7.30983926 122.400675,7.54242983 123.036054,7.89415741 C123.671433,8.245885 124.181998,8.73943083 124.567764,9.3748097 C124.953529,10.0101886 125.146409,10.8384379 125.146409,11.8595825 L125.146409,20.9136861 C125.146409,21.5944492 125.18612,22.0936679 125.265542,22.4113574 C125.344965,22.7290468 125.611593,22.8878891 126.065435,22.8878891 C126.315048,22.8878891 126.610041,22.8311597 126.950422,22.7176992 L126.950422,24.9642061 Z M122.253181,15.9441405 C121.890107,16.2164457 121.41358,16.4149987 120.823585,16.5398052 C120.233591,16.6646118 119.61524,16.7667247 118.968515,16.8461471 C118.32179,16.9255694 117.669402,17.0163365 117.011331,17.1184509 C116.35326,17.2205654 115.763274,17.3850807 115.241356,17.6120017 C114.719438,17.8389227 114.293967,18.1622803 113.964932,18.5820842 C113.635896,19.0018881 113.471381,19.5748551 113.471381,20.3010024 C113.471381,20.7775365 113.567821,21.1803153 113.760704,21.5093508 C113.953587,21.8383863 114.203196,22.1050145 114.509539,22.3092434 C114.815883,22.5134723 115.173278,22.6609688 115.581736,22.7517372 C115.990194,22.8425056 116.421337,22.8878891 116.875179,22.8878891 C117.828248,22.8878891 118.645151,22.7574115 119.325914,22.4964523 C120.006677,22.2354931 120.562625,21.9064626 120.993775,21.5093508 C121.424925,21.112239 121.74261,20.6810955 121.946839,20.2159074 C122.151068,19.7507193 122.253181,19.3139029 122.253181,18.9054451 L122.253181,15.9441405 Z M131.341522,16.3866343 C131.341522,15.5243344 131.432289,14.6847392 131.613826,13.8678235 C131.795363,13.0509078 132.090356,12.3247714 132.498814,11.6893926 C132.907272,11.0540137 133.451874,10.5434491 134.132637,10.1576833 C134.8134,9.77191757 135.641649,9.5790376 136.61741,9.5790376 C137.615862,9.5790376 138.466803,9.76624463 139.170258,10.1406643 C139.873714,10.515084 140.446681,11.0086298 140.889177,11.6213166 C141.331673,12.2340034 141.65503,12.9431209 141.859259,13.7486906 C142.063488,14.5542602 142.165601,15.3881825 142.165601,16.2504824 C142.165601,17.067398 142.069161,17.8729556 141.876278,18.6671792 C141.683395,19.4614028 141.371384,20.1705203 140.940234,20.7945532 C140.509084,21.418586 139.953136,21.9234777 139.272372,22.3092434 C138.591609,22.6950092 137.76336,22.8878891 136.7876,22.8878891 C135.857223,22.8878891 135.045993,22.706355 134.353884,22.3432814 C133.661775,21.9802078 133.094481,21.4923349 132.651985,20.8796481 C132.209489,20.2669613 131.880458,19.5691897 131.664883,18.7863121 C131.449308,18.0034346 131.341522,17.20355 131.341522,16.3866343 L131.341522,16.3866343 Z M144.956716,25.0322821 L144.956716,0.729161891 L142.063487,0.729161891 L142.063487,9.7832655 L141.995411,9.7832655 C141.677722,9.26134714 141.286289,8.82453072 140.821101,8.47280313 C140.355913,8.12107554 139.862367,7.83742852 139.340448,7.62185355 C138.81853,7.40627857 138.29662,7.25310918 137.774701,7.16234077 C137.252783,7.07157236 136.76491,7.02618883 136.311068,7.02618883 C134.972234,7.02618883 133.797935,7.27012528 132.788137,7.75800548 C131.778338,8.24588568 130.938743,8.90394678 130.269326,9.73220852 C129.599909,10.5604703 129.10069,11.5305431 128.771655,12.6424561 C128.442619,13.7543691 128.278104,14.9343408 128.278104,16.1824064 C128.278104,17.430472 128.448292,18.6104437 128.788674,19.7223567 C129.129055,20.8342697 129.633947,21.8100155 130.303364,22.6496233 C130.972781,23.489231 131.812376,24.158638 132.822175,24.6578643 C133.831973,25.1570905 135.017618,25.4066999 136.379144,25.4066999 C137.604517,25.4066999 138.72776,25.1911282 139.748904,24.7599782 C140.770049,24.3288283 141.518877,23.6253837 141.995411,22.6496233 L142.063487,22.6496233 L142.063487,25.0322821 L144.956716,25.0322821 Z M152.070854,4.26911217 L152.070854,0.729161891 L149.177626,0.729161891 L149.177626,4.26911217 L152.070854,4.26911217 Z M149.177626,7.43464464 L149.177626,25.0322821 L152.070854,25.0322821 L152.070854,7.43464464 L149.177626,7.43464464 Z M156.155612,7.43464464 L156.155612,25.0322821 L159.048841,25.0322821 L159.048841,15.0931909 C159.048841,14.2989673 159.156627,13.567158 159.372202,12.897741 C159.587777,12.228324 159.911134,11.6440111 160.342284,11.1447848 C160.773434,10.6455586 161.312364,10.2597986 161.959088,9.9874934 C162.605813,9.71518817 163.37166,9.5790376 164.256652,9.5790376 C165.368565,9.5790376 166.242198,9.89672226 166.877577,10.5321011 C167.512956,11.16748 167.830641,12.029767 167.830641,13.1189879 L167.830641,25.0322821 L170.723869,25.0322821 L170.723869,13.4593677 C170.723869,12.5062994 170.627429,11.6383395 170.434546,10.855462 C170.241663,10.0725844 169.90696,9.39750452 169.430426,8.83020196 C168.953892,8.2628994 168.329868,7.82041004 167.558337,7.5027206 C166.786805,7.18503117 165.822405,7.02618883 164.665108,7.02618883 C162.055516,7.02618883 160.149408,8.09270165 158.946727,10.2257593 L158.878651,10.2257593 L158.878651,7.43464464 L156.155612,7.43464464 Z M189.853416,23.5346108 L189.853416,7.43464464 L187.130377,7.43464464 L187.130377,9.95345541 L187.096339,9.95345541 C186.574421,8.97769501 185.848284,8.24588568 184.917908,7.75800548 C183.987532,7.27012528 182.966403,7.02618883 181.85449,7.02618883 C180.334119,7.02618883 179.052034,7.3155088 178.008198,7.89415741 C176.964361,8.47280603 176.124766,9.21028829 175.489387,10.1066263 C174.854008,11.0029644 174.400173,12.0014019 174.127868,13.1019689 C173.855562,14.2025359 173.719412,15.2747216 173.719412,16.3185583 C173.719412,17.5212398 173.883927,18.6615008 174.212962,19.7393757 C174.541998,20.8172505 175.035544,21.7589587 175.693615,22.5645283 C176.351686,23.3700979 177.168589,24.0111402 178.14435,24.4876744 C179.12011,24.9642085 180.266044,25.202472 181.582186,25.202472 C182.716791,25.202472 183.788977,24.9471897 184.798775,24.4366174 C185.808574,23.9260451 186.563075,23.1261605 187.062301,22.0369396 L187.130377,22.0369396 L187.130377,23.194231 C187.130377,24.1699914 187.033937,25.066316 186.841054,25.8832317 C186.648171,26.7001474 186.33616,27.3979191 185.90501,27.9765677 C185.47386,28.5552163 184.929258,29.0090515 184.271187,29.338087 C183.613116,29.6671225 182.807558,29.8316378 181.85449,29.8316378 C181.377956,29.8316378 180.878737,29.7805813 180.356818,29.6784668 C179.8349,29.5763524 179.3527,29.4118371 178.910204,29.1849161 C178.467708,28.9579951 178.093294,28.6630022 177.786951,28.2999285 C177.480607,27.9368549 177.316092,27.4943655 177.2934,26.9724472 L174.400171,26.9724472 C174.445556,27.9255155 174.695165,28.731073 175.149007,29.389144 C175.602849,30.047215 176.175816,30.5804714 176.867925,30.9889292 C177.560034,31.3973871 178.331554,31.69238 179.182508,31.8739168 C180.033462,32.0554536 180.867384,32.1462206 181.6843,32.1462206 C184.498121,32.1462206 186.563071,31.4314301 187.879213,30.0018277 C189.195355,28.5722252 189.853416,26.4165078 189.853416,23.5346108 L189.853416,23.5346108 Z M181.752376,22.6836612 C180.799308,22.6836612 180.005096,22.4851083 179.369717,22.0879965 C178.734338,21.6908847 178.223773,21.1689742 177.838008,20.5222493 C177.452242,19.8755244 177.179941,19.1550609 177.021096,18.3608373 C176.862251,17.5666137 176.78283,16.7724021 176.78283,15.9781785 C176.78283,15.1385707 176.87927,14.3330131 177.072153,13.5614817 C177.265036,12.7899502 177.571375,12.1091973 177.991179,11.5192027 C178.410983,10.929208 178.949912,10.4583539 179.607983,10.1066263 C180.266054,9.75489875 181.060266,9.5790376 181.990642,9.5790376 C182.898326,9.5790376 183.669846,9.76057169 184.305225,10.1236453 C184.940603,10.486719 185.456841,10.9689189 185.853953,11.5702596 C186.251065,12.1716003 186.540385,12.8466803 186.721921,13.5955196 C186.903458,14.344359 186.994225,15.1045331 186.994225,15.8760645 C186.994225,16.6929802 186.897785,17.5098837 186.704902,18.3267994 C186.51202,19.143715 186.211354,19.8755244 185.802896,20.5222493 C185.394438,21.1689742 184.855509,21.6908847 184.186092,22.0879965 C183.516675,22.4851083 182.705444,22.6836612 181.752376,22.6836612 L181.752376,22.6836612 Z M194.448744,21.2540659 L194.448744,25.0322821 L196.456985,25.0322821 C196.479677,25.3045873 196.462658,25.5995802 196.405928,25.9172697 C196.349197,26.2349591 196.241412,26.5469708 196.082567,26.8533142 C195.923722,27.1596576 195.713823,27.4433046 195.452864,27.7042638 C195.191905,27.965223 194.868547,28.1637759 194.482782,28.2999285 L194.482782,30.0018277 C195.798924,29.6160619 196.751978,28.9580008 197.341972,28.0276246 C197.931967,27.0972484 198.22696,25.9853521 198.22696,24.6919023 L198.22696,21.2540659 L194.448744,21.2540659 Z" id="Heading,-" fill="#19191A" sketch:type="MSShapeGroup"></path>
                <path d="M215.45686,11.2468988 L215.45686,13.6976336 C216.001471,13.6295573 216.580111,13.5955196 217.192798,13.5955196 C217.918945,13.5955196 218.594025,13.6919596 219.218058,13.8848425 C219.84209,14.0777254 220.38102,14.3727183 220.834862,14.7698301 C221.288704,15.1669419 221.651772,15.6548148 221.924077,16.2334634 C222.196383,16.812112 222.332533,17.475846 222.332533,18.2246854 C222.332533,18.9508327 222.19071,19.6032208 221.907058,20.1818695 C221.623407,20.7605181 221.24332,21.2483909 220.766786,21.6455027 C220.290252,22.0426145 219.734304,22.3489533 219.098925,22.5645283 C218.463546,22.7801033 217.794139,22.8878891 217.090684,22.8878891 C215.43416,22.8878891 214.174767,22.3943433 213.312467,21.4072369 C212.450168,20.4201304 211.996332,19.1437188 211.950948,17.5779637 L209.05772,17.5779637 C209.035027,18.8260293 209.210889,19.9379257 209.585308,20.9136861 C209.959728,21.8894465 210.498657,22.7120229 211.202112,23.3814399 C211.905568,24.0508569 212.756509,24.5557486 213.754961,24.8961302 C214.753414,25.2365117 215.86531,25.4066999 217.090684,25.4066999 C218.225289,25.4066999 219.297475,25.2535305 220.307273,24.9471871 C221.317072,24.6408438 222.196377,24.1813356 222.945217,23.5686488 C223.694056,22.955962 224.289715,22.1901151 224.732211,21.2710849 C225.174707,20.3520548 225.395952,19.2912149 225.395952,18.0885335 C225.395952,16.6362389 225.038556,15.3768461 224.323755,14.3103173 C223.608954,13.2437885 222.514076,12.5516897 221.03909,12.2340003 L221.03909,12.1659243 C221.992158,11.7347744 222.78637,11.0994051 223.421749,10.2597973 C224.057127,9.42018948 224.374812,8.45578959 224.374812,7.36656867 C224.374812,6.25465565 224.187605,5.29025576 223.813185,4.47334007 C223.438766,3.65642439 222.922528,2.9870174 222.264457,2.46509905 C221.606386,1.94318069 220.829193,1.5517478 219.932855,1.29078862 C219.036517,1.02982944 218.066444,0.899351808 217.022608,0.899351808 C215.819926,0.899351808 214.759086,1.09223179 213.840056,1.47799753 C212.921026,1.86376327 212.155179,2.39701968 211.542492,3.07778275 C210.929806,3.75854582 210.458951,4.57544926 210.129916,5.52851756 C209.800881,6.48158586 209.613673,7.5367528 209.568289,8.69405003 L212.461518,8.69405003 C212.461518,7.99059485 212.552285,7.32118787 212.733822,6.685809 C212.915359,6.05043013 213.193333,5.49448196 213.567752,5.01794781 C213.942172,4.54141366 214.418699,4.16132664 214.997348,3.87767536 C215.575996,3.59402408 216.251076,3.45220057 217.022608,3.45220057 C218.247981,3.45220057 219.26911,3.77555818 220.086026,4.4222831 C220.902942,5.06900802 221.311394,6.03908085 221.311394,7.33253069 C221.311394,7.96790955 221.186589,8.53520361 220.936976,9.03442986 C220.687363,9.53365611 220.352659,9.94778077 219.932855,10.2768163 C219.513051,10.6058517 219.025178,10.8554611 218.469222,11.0256519 C217.913265,11.1958427 217.328953,11.2809368 216.716266,11.2809368 L216.103582,11.2809368 L215.763202,11.2809368 C215.672434,11.2809368 215.570321,11.2695909 215.45686,11.2468988 L215.45686,11.2468988 Z M231.046057,13.1530259 C231.046057,12.5630312 231.05173,11.910643 231.063076,11.1958418 C231.074422,10.4810406 231.131151,9.76625008 231.233266,9.05144885 C231.33538,8.33664762 231.482877,7.63887594 231.67576,6.95811287 C231.868642,6.27734979 232.152289,5.68169104 232.526709,5.17111873 C232.901129,4.66054643 233.371983,4.24642177 233.939285,3.92873234 C234.506588,3.6110429 235.198687,3.45220057 236.015602,3.45220057 C236.832518,3.45220057 237.524617,3.6110429 238.091919,3.92873234 C238.659222,4.24642177 239.130076,4.66054643 239.504496,5.17111873 C239.878915,5.68169104 240.162562,6.27734979 240.355445,6.95811287 C240.548328,7.63887594 240.695825,8.33664762 240.797939,9.05144885 C240.900054,9.76625008 240.956783,10.4810406 240.968129,11.1958418 C240.979475,11.910643 240.985148,12.5630312 240.985148,13.1530259 C240.985148,14.06071 240.956783,15.0761663 240.900053,16.1994254 C240.843323,17.3226845 240.661789,18.3778514 240.355445,19.3649578 C240.049102,20.3520643 239.555556,21.1859866 238.874793,21.8667496 C238.19403,22.5475127 237.240976,22.8878891 236.015602,22.8878891 C234.790229,22.8878891 233.837175,22.5475127 233.156412,21.8667496 C232.475649,21.1859866 231.982103,20.3520643 231.67576,19.3649578 C231.369416,18.3778514 231.187882,17.3226845 231.131152,16.1994254 C231.074422,15.0761663 231.046057,14.06071 231.046057,13.1530259 L231.046057,13.1530259 Z M227.982638,13.1870638 C227.982638,14.0720558 228.00533,14.9910722 228.050714,15.9441405 C228.096099,16.8972088 228.209557,17.8275711 228.391094,18.7352552 C228.572631,19.6429393 228.833586,20.4995533 229.173968,21.3051229 C229.514349,22.1106925 229.97953,22.8198101 230.569525,23.4324969 C231.15952,24.0451836 231.902675,24.5273836 232.799013,24.8791112 C233.695351,25.2308388 234.767537,25.4066999 236.015602,25.4066999 C237.28636,25.4066999 238.364219,25.2308388 239.249211,24.8791112 C240.134203,24.5273836 240.871685,24.0451836 241.46168,23.4324969 C242.051674,22.8198101 242.516856,22.1106925 242.857237,21.3051229 C243.197619,20.4995533 243.458574,19.6429393 243.640111,18.7352552 C243.821648,17.8275711 243.935106,16.8972088 243.980491,15.9441405 C244.025875,14.9910722 244.048567,14.0720558 244.048567,13.1870638 C244.048567,12.3020718 244.025875,11.3830555 243.980491,10.4299872 C243.935106,9.47691888 243.821648,8.54655664 243.640111,7.63887254 C243.458574,6.73118844 243.197619,5.86890148 242.857237,5.05198579 C242.516856,4.2350701 242.051674,3.5202796 241.46168,2.90759283 C240.871685,2.29490607 240.12853,1.80703318 239.232192,1.44395954 C238.335854,1.0808859 237.263668,0.899351808 236.015602,0.899351808 C234.767537,0.899351808 233.695351,1.0808859 232.799013,1.44395954 C231.902675,1.80703318 231.15952,2.29490607 230.569525,2.90759283 C229.97953,3.5202796 229.514349,4.2350701 229.173968,5.05198579 C228.833586,5.86890148 228.572631,6.73118844 228.391094,7.63887254 C228.209557,8.54655664 228.096099,9.47691888 228.050714,10.4299872 C228.00533,11.3830555 227.982638,12.3020718 227.982638,13.1870638 L227.982638,13.1870638 Z M249.56252,13.1530259 C249.56252,12.5630312 249.568193,11.910643 249.579539,11.1958418 C249.590885,10.4810406 249.647614,9.76625008 249.749729,9.05144885 C249.851843,8.33664762 249.99934,7.63887594 250.192223,6.95811287 C250.385105,6.27734979 250.668752,5.68169104 251.043172,5.17111873 C251.417592,4.66054643 251.888446,4.24642177 252.455748,3.92873234 C253.023051,3.6110429 253.71515,3.45220057 254.532065,3.45220057 C255.348981,3.45220057 256.04108,3.6110429 256.608382,3.92873234 C257.175685,4.24642177 257.646539,4.66054643 258.020959,5.17111873 C258.395378,5.68169104 258.679025,6.27734979 258.871908,6.95811287 C259.064791,7.63887594 259.212288,8.33664762 259.314402,9.05144885 C259.416517,9.76625008 259.473246,10.4810406 259.484592,11.1958418 C259.495938,11.910643 259.501611,12.5630312 259.501611,13.1530259 C259.501611,14.06071 259.473246,15.0761663 259.416516,16.1994254 C259.359786,17.3226845 259.178252,18.3778514 258.871908,19.3649578 C258.565565,20.3520643 258.072019,21.1859866 257.391256,21.8667496 C256.710493,22.5475127 255.757439,22.8878891 254.532065,22.8878891 C253.306692,22.8878891 252.353638,22.5475127 251.672875,21.8667496 C250.992112,21.1859866 250.498566,20.3520643 250.192223,19.3649578 C249.885879,18.3778514 249.704345,17.3226845 249.647615,16.1994254 C249.590885,15.0761663 249.56252,14.06071 249.56252,13.1530259 L249.56252,13.1530259 Z M246.499101,13.1870638 C246.499101,14.0720558 246.521793,14.9910722 246.567177,15.9441405 C246.612562,16.8972088 246.72602,17.8275711 246.907557,18.7352552 C247.089094,19.6429393 247.350049,20.4995533 247.690431,21.3051229 C248.030812,22.1106925 248.495993,22.8198101 249.085988,23.4324969 C249.675983,24.0451836 250.419138,24.5273836 251.315476,24.8791112 C252.211814,25.2308388 253.284,25.4066999 254.532065,25.4066999 C255.802823,25.4066999 256.880682,25.2308388 257.765674,24.8791112 C258.650666,24.5273836 259.388148,24.0451836 259.978143,23.4324969 C260.568137,22.8198101 261.033319,22.1106925 261.3737,21.3051229 C261.714082,20.4995533 261.975037,19.6429393 262.156574,18.7352552 C262.338111,17.8275711 262.451569,16.8972088 262.496954,15.9441405 C262.542338,14.9910722 262.56503,14.0720558 262.56503,13.1870638 C262.56503,12.3020718 262.542338,11.3830555 262.496954,10.4299872 C262.451569,9.47691888 262.338111,8.54655664 262.156574,7.63887254 C261.975037,6.73118844 261.714082,5.86890148 261.3737,5.05198579 C261.033319,4.2350701 260.568137,3.5202796 259.978143,2.90759283 C259.388148,2.29490607 258.644993,1.80703318 257.748655,1.44395954 C256.852317,1.0808859 255.780131,0.899351808 254.532065,0.899351808 C253.284,0.899351808 252.211814,1.0808859 251.315476,1.44395954 C250.419138,1.80703318 249.675983,2.29490607 249.085988,2.90759283 C248.495993,3.5202796 248.030812,4.2350701 247.690431,5.05198579 C247.350049,5.86890148 247.089094,6.73118844 246.907557,7.63887254 C246.72602,8.54655664 246.612562,9.47691888 246.567177,10.4299872 C246.521793,11.3830555 246.499101,12.3020718 246.499101,13.1870638 L246.499101,13.1870638 Z M277.166924,12.880722 C277.166924,11.6553485 277.325767,10.4470121 277.643456,9.25567675 C277.961146,8.06434137 278.460364,6.99215562 279.141128,6.03908731 C279.821891,5.08601901 280.695523,4.32017204 281.762052,3.74152343 C282.828581,3.16287482 284.09932,2.87355485 285.574306,2.87355485 C287.049293,2.87355485 288.320032,3.16287482 289.386561,3.74152343 C290.453089,4.32017204 291.326722,5.08601901 292.007485,6.03908731 C292.688248,6.99215562 293.187467,8.06434137 293.505157,9.25567675 C293.822846,10.4470121 293.981688,11.6553485 293.981688,12.880722 C293.981688,14.1060955 293.822846,15.3144319 293.505157,16.5057672 C293.187467,17.6971026 292.688248,18.7692884 292.007485,19.7223567 C291.326722,20.675425 290.453089,21.4412719 289.386561,22.0199206 C288.320032,22.5985692 287.049293,22.8878891 285.574306,22.8878891 C284.09932,22.8878891 282.828581,22.5985692 281.762052,22.0199206 C280.695523,21.4412719 279.821891,20.675425 279.141128,19.7223567 C278.460364,18.7692884 277.961146,17.6971026 277.643456,16.5057672 C277.325767,15.3144319 277.166924,14.1060955 277.166924,12.880722 L277.166924,12.880722 Z M273.933316,12.880722 C273.933316,14.5372455 274.177252,16.1313418 274.665133,17.6630587 C275.153013,19.1947756 275.884822,20.5506084 276.860583,21.7305977 C277.836343,22.910587 279.050352,23.8466222 280.502647,24.5387313 C281.954941,25.2308405 283.645478,25.5768898 285.574306,25.5768898 C287.503135,25.5768898 289.193671,25.2308405 290.645966,24.5387313 C292.09826,23.8466222 293.31227,22.910587 294.28803,21.7305977 C295.263791,20.5506084 295.9956,19.1947756 296.48348,17.6630587 C296.97136,16.1313418 297.215297,14.5372455 297.215297,12.880722 C297.215297,11.2241985 296.97136,9.63010223 296.48348,8.09838531 C295.9956,6.5666684 295.263791,5.21083562 294.28803,4.03084629 C293.31227,2.85085696 292.09826,1.90914884 290.645966,1.20569366 C289.193671,0.502238483 287.503135,0.150516171 285.574306,0.150516171 C283.645478,0.150516171 281.954941,0.502238483 280.502647,1.20569366 C279.050352,1.90914884 277.836343,2.85085696 276.860583,4.03084629 C275.884822,5.21083562 275.153013,6.5666684 274.665133,8.09838531 C274.177252,9.63010223 273.933316,11.2241985 273.933316,12.880722 L273.933316,12.880722 Z M300.380629,7.43464464 L300.380629,31.7377648 L303.273858,31.7377648 L303.273858,22.6836612 L303.341934,22.6836612 C303.659623,23.2055796 304.051056,23.642396 304.516244,23.9941236 C304.981432,24.3458512 305.474978,24.6238253 305.996896,24.8280542 C306.518815,25.0322831 307.046398,25.1797796 307.579663,25.270548 C308.112927,25.3613164 308.595127,25.4066999 309.026277,25.4066999 C310.365111,25.4066999 311.53941,25.1684364 312.549208,24.6919023 C313.559007,24.2153681 314.398602,23.56298 315.068019,22.7347182 C315.737436,21.9064565 316.236655,20.9363836 316.56569,19.8244706 C316.894726,18.7125576 317.059241,17.532586 317.059241,16.2845203 C317.059241,15.0364547 316.889053,13.8564831 316.548671,12.7445701 C316.20829,11.632657 315.703398,10.6512383 315.033981,9.80028449 C314.364564,8.94933065 313.524969,8.27425073 312.51517,7.77502447 C311.505372,7.27579822 310.319727,7.02618883 308.958201,7.02618883 C307.732828,7.02618883 306.609585,7.24743351 305.588441,7.68992951 C304.567296,8.13242551 303.818468,8.84154308 303.341934,9.81730348 L303.273858,9.81730348 L303.273858,7.43464464 L300.380629,7.43464464 Z M313.995823,16.0802924 C313.995823,16.9425923 313.905056,17.7821875 313.723519,18.5991032 C313.541982,19.4160189 313.246989,20.1421553 312.838531,20.7775342 C312.430073,21.412913 311.891144,21.9234777 311.221727,22.3092434 C310.55231,22.6950092 309.718388,22.8878891 308.719935,22.8878891 C307.721483,22.8878891 306.870542,22.7006821 306.167086,22.3262624 C305.463631,21.9518427 304.890664,21.4582969 304.448168,20.8456101 C304.005672,20.2329234 303.682315,19.5238058 303.478086,18.7182362 C303.273857,17.9126665 303.171744,17.0787443 303.171744,16.2164444 C303.171744,15.3995287 303.268184,14.5939711 303.461067,13.7997475 C303.65395,13.005524 303.965961,12.2964064 304.397111,11.6723736 C304.828261,11.0483408 305.384209,10.5434491 306.064972,10.1576833 C306.745736,9.77191757 307.573985,9.5790376 308.549745,9.5790376 C309.480121,9.5790376 310.291352,9.76057169 310.983461,10.1236453 C311.67557,10.486719 312.242864,10.9745919 312.68536,11.5872786 C313.127856,12.1999654 313.456887,12.8977371 313.672462,13.6806146 C313.888037,14.4634921 313.995823,15.2633768 313.995823,16.0802924 L313.995823,16.0802924 Z M332.27402,14.5485832 L322.164739,14.5485832 C322.210123,13.8678201 322.357619,13.2267778 322.607232,12.6254371 C322.856846,12.0240964 323.197222,11.4965129 323.628372,11.0426709 C324.059522,10.5888288 324.575759,10.2314336 325.1771,9.97047441 C325.778441,9.70951523 326.453521,9.5790376 327.20236,9.5790376 C327.928507,9.5790376 328.592242,9.70951523 329.193582,9.97047441 C329.794923,10.2314336 330.316833,10.5831559 330.759329,11.0256519 C331.201825,11.4681479 331.553548,11.9957314 331.814507,12.6084181 C332.075466,13.2211049 332.228636,13.8678201 332.27402,14.5485832 L332.27402,14.5485832 Z M335.065134,19.4500528 L332.205944,19.4500528 C331.956331,20.60735 331.440093,21.469637 330.657216,22.0369396 C329.874338,22.6042421 328.870228,22.8878891 327.644854,22.8878891 C326.691786,22.8878891 325.863536,22.7290468 325.160081,22.4113574 C324.456626,22.0936679 323.877986,21.6681974 323.424144,21.134933 C322.970302,20.6016686 322.641271,19.988991 322.437043,19.2968819 C322.232814,18.6047728 322.142047,17.8729634 322.164739,17.1014319 L335.337438,17.1014319 C335.382822,16.0349031 335.286382,14.9116609 335.048115,13.7316716 C334.809848,12.5516823 334.378705,11.4624777 333.754672,10.4640252 C333.130639,9.46557266 332.30239,8.64299628 331.269899,7.99627136 C330.237409,7.34954644 328.938305,7.02618883 327.37255,7.02618883 C326.169869,7.02618883 325.063645,7.25310646 324.053847,7.7069485 C323.044048,8.16079055 322.170415,8.79615989 321.432922,9.61307558 C320.695429,10.4299913 320.122462,11.3943912 319.714004,12.5063042 C319.305546,13.6182172 319.10132,14.8435723 319.10132,16.1824064 C319.146704,17.5212404 319.345257,18.7579415 319.696985,19.8925466 C320.048712,21.0271517 320.576296,22.0028975 321.279751,22.8198132 C321.983206,23.6367289 322.851166,24.2720982 323.883657,24.7259402 C324.916147,25.1797823 326.13583,25.4066999 327.54274,25.4066999 C329.539645,25.4066999 331.196144,24.9074811 332.512286,23.9090286 C333.828428,22.9105761 334.679369,21.4242657 335.065134,19.4500528 L335.065134,19.4500528 Z M337.924125,7.43464464 L337.924125,25.0322821 L340.817354,25.0322821 L340.817354,15.0931909 C340.817354,14.2989673 340.925139,13.567158 341.140714,12.897741 C341.356289,12.228324 341.679647,11.6440111 342.110797,11.1447848 C342.541947,10.6455586 343.080876,10.2597986 343.727601,9.9874934 C344.374326,9.71518817 345.140173,9.5790376 346.025165,9.5790376 C347.137078,9.5790376 348.010711,9.89672226 348.64609,10.5321011 C349.281469,11.16748 349.599153,12.029767 349.599153,13.1189879 L349.599153,25.0322821 L352.492382,25.0322821 L352.492382,13.4593677 C352.492382,12.5062994 352.395942,11.6383395 352.203059,10.855462 C352.010176,10.0725844 351.675473,9.39750452 351.198939,8.83020196 C350.722404,8.2628994 350.098381,7.82041004 349.326849,7.5027206 C348.555318,7.18503117 347.590918,7.02618883 346.433621,7.02618883 C343.824029,7.02618883 341.917921,8.09270165 340.71524,10.2257593 L340.647164,10.2257593 L340.647164,7.43464464 L337.924125,7.43464464 Z M380.028711,7.84310044 L383.092129,7.84310044 C383.046745,6.50426639 382.791463,5.35265947 382.326274,4.38824511 C381.861086,3.42383076 381.225717,2.62394615 380.420147,1.98856728 C379.614578,1.35318841 378.678543,0.888007288 377.612014,0.593009957 C376.545485,0.298012625 375.388205,0.150516171 374.140139,0.150516171 C373.028226,0.150516171 371.944695,0.292339684 370.889512,0.575990965 C369.834329,0.859642245 368.892621,1.29078572 368.064359,1.86943434 C367.236098,2.44808295 366.572364,3.18556522 366.073137,4.08190326 C365.573911,4.97824131 365.324302,6.03908119 365.324302,7.26445472 C365.324302,8.37636774 365.545546,9.30105704 365.988042,10.0385504 C366.430538,10.7760437 367.020524,11.3773754 367.758018,11.8425635 C368.495511,12.3077516 369.329433,12.6821657 370.259809,12.965817 C371.190186,13.2494682 372.137567,13.4990776 373.101981,13.7146526 C374.066395,13.9302276 375.013776,14.1401264 375.944153,14.3443553 C376.874529,14.5485842 377.708451,14.8152124 378.445944,15.1442479 C379.183438,15.4732834 379.773423,15.8987539 380.215919,16.4206723 C380.658415,16.9425906 380.87966,17.6233435 380.87966,18.4629513 C380.87966,19.3479433 380.698126,20.0740797 380.335052,20.6413822 C379.971979,21.2086848 379.495452,21.6568471 378.905457,21.9858826 C378.315462,22.3149181 377.651728,22.5475086 376.914235,22.6836612 C376.176742,22.8198139 375.444932,22.8878891 374.718785,22.8878891 C373.811101,22.8878891 372.926122,22.7744303 372.063822,22.5475093 C371.201523,22.3205883 370.447021,21.968866 369.800297,21.4923318 C369.153572,21.0157977 368.631661,20.408793 368.234549,19.6712997 C367.837437,18.9338064 367.638885,18.0545006 367.638885,17.033356 L364.575466,17.033356 C364.575466,18.5083426 364.842094,19.7847543 365.375359,20.8626291 C365.908623,21.940504 366.634759,22.8254827 367.55379,23.5175918 C368.47282,24.209701 369.539333,24.7259385 370.75336,25.0663201 C371.967388,25.4067016 373.255145,25.5768898 374.616671,25.5768898 C375.728584,25.5768898 376.846153,25.4464122 377.969413,25.185453 C379.092672,24.9244938 380.108128,24.5046962 381.015812,23.9260476 C381.923496,23.347399 382.666651,22.5985709 383.2453,21.6795407 C383.823949,20.7605106 384.113269,19.6542872 384.113269,18.3608373 C384.113269,17.1581559 383.892024,16.1597184 383.449528,15.3654948 C383.007032,14.5712712 382.417046,13.9132101 381.679553,13.3912917 C380.942059,12.8693734 380.108137,12.4552487 379.177761,12.1489053 C378.247385,11.842562 377.300004,11.5759338 376.335589,11.3490127 C375.371175,11.1220917 374.423794,10.9121929 373.493418,10.71931 C372.563042,10.5264272 371.729119,10.2824907 370.991626,9.9874934 C370.254133,9.69249607 369.664147,9.31240905 369.221651,8.84722095 C368.779155,8.38203285 368.55791,7.77502822 368.55791,7.02618883 C368.55791,6.23196525 368.71108,5.56823121 369.017423,5.0349668 C369.323766,4.50170239 369.732218,4.07623185 370.24279,3.75854242 C370.753363,3.44085299 371.337675,3.21393537 371.995746,3.07778275 C372.653817,2.94163014 373.323224,2.87355485 374.003987,2.87355485 C375.683203,2.87355485 377.061728,3.26498775 378.139602,4.04786528 C379.217477,4.83074281 379.847174,6.09580855 380.028711,7.84310044 L380.028711,7.84310044 Z M402.731846,24.9642061 C402.232619,25.2592035 401.540521,25.4066999 400.655529,25.4066999 C399.906689,25.4066999 399.31103,25.1968011 398.868534,24.7769972 C398.426038,24.3571933 398.204794,23.6707675 398.204794,22.7176992 C397.41057,23.6707675 396.485881,24.3571933 395.430698,24.7769972 C394.375515,25.1968011 393.235254,25.4066999 392.009881,25.4066999 C391.215657,25.4066999 390.461156,25.3159329 389.746355,25.134396 C389.031554,24.9528592 388.413203,24.6692122 387.891285,24.2834465 C387.369366,23.8976807 386.955242,23.392789 386.648898,22.7687562 C386.342555,22.1447234 386.189386,21.3902223 386.189386,20.5052303 C386.189386,19.5067778 386.359574,18.6898744 386.699955,18.0544955 C387.040337,17.4191166 387.488499,16.902879 388.044456,16.5057672 C388.600412,16.1086554 389.235782,15.8079896 389.950583,15.6037607 C390.665384,15.3995318 391.397193,15.2293435 392.146033,15.0931909 C392.940256,14.9343462 393.694757,14.8152145 394.409559,14.7357921 C395.12436,14.6563697 395.754056,14.5429109 396.298667,14.3954123 C396.843277,14.2479136 397.274421,14.0323419 397.59211,13.7486906 C397.909799,13.4650393 398.068642,13.0509146 398.068642,12.5063042 C398.068642,11.8709253 397.94951,11.3603607 397.711243,10.9745949 C397.472976,10.5888292 397.166637,10.2938363 396.792217,10.0896073 C396.417798,9.88537843 395.998,9.74922785 395.532812,9.68115155 C395.067624,9.61307524 394.608116,9.5790376 394.154274,9.5790376 C392.9289,9.5790376 391.907771,9.81162816 391.090855,10.2768163 C390.27394,10.7420044 389.83145,11.6213101 389.763374,12.91476 L386.870145,12.91476 C386.915529,11.8255391 387.142447,10.9065227 387.550905,10.1576833 C387.959363,9.40884393 388.503965,8.8018393 389.184728,8.3366512 C389.865491,7.8714631 390.642684,7.53675961 391.51633,7.33253069 C392.389976,7.12830176 393.326011,7.02618883 394.324464,7.02618883 C395.118687,7.02618883 395.907226,7.08291824 396.690103,7.19637875 C397.472981,7.30983926 398.182099,7.54242983 398.817477,7.89415741 C399.452856,8.245885 399.963421,8.73943083 400.349187,9.3748097 C400.734952,10.0101886 400.927832,10.8384379 400.927832,11.8595825 L400.927832,20.9136861 C400.927832,21.5944492 400.967543,22.0936679 401.046965,22.4113574 C401.126388,22.7290468 401.393016,22.8878891 401.846858,22.8878891 C402.096471,22.8878891 402.391464,22.8311597 402.731846,22.7176992 L402.731846,24.9642061 Z M398.034604,15.9441405 C397.67153,16.2164457 397.195003,16.4149987 396.605009,16.5398052 C396.015014,16.6646118 395.396663,16.7667247 394.749938,16.8461471 C394.103213,16.9255694 393.450825,17.0163365 392.792754,17.1184509 C392.134683,17.2205654 391.544698,17.3850807 391.022779,17.6120017 C390.500861,17.8389227 390.07539,18.1622803 389.746355,18.5820842 C389.417319,19.0018881 389.252804,19.5748551 389.252804,20.3010024 C389.252804,20.7775365 389.349244,21.1803153 389.542127,21.5093508 C389.73501,21.8383863 389.984619,22.1050145 390.290963,22.3092434 C390.597306,22.5134723 390.954701,22.6609688 391.363159,22.7517372 C391.771617,22.8425056 392.20276,22.8878891 392.656602,22.8878891 C393.609671,22.8878891 394.426574,22.7574115 395.107337,22.4964523 C395.7881,22.2354931 396.344048,21.9064626 396.775198,21.5093508 C397.206348,21.112239 397.524033,20.6810955 397.728262,20.2159074 C397.932491,19.7507193 398.034604,19.3139029 398.034604,18.9054451 L398.034604,15.9441405 Z M405.01219,7.43464464 L405.01219,25.0322821 L407.905419,25.0322821 L407.905419,15.0931909 C407.905419,14.2989673 408.013205,13.567158 408.22878,12.897741 C408.444355,12.228324 408.767712,11.6440111 409.198862,11.1447848 C409.630012,10.6455586 410.168942,10.2597986 410.815667,9.9874934 C411.462392,9.71518817 412.228239,9.5790376 413.113231,9.5790376 C414.225144,9.5790376 415.098776,9.89672226 415.734155,10.5321011 C416.369534,11.16748 416.687219,12.029767 416.687219,13.1189879 L416.687219,25.0322821 L419.580447,25.0322821 L419.580447,13.4593677 C419.580447,12.5062994 419.484007,11.6383395 419.291125,10.855462 C419.098242,10.0725844 418.763538,9.39750452 418.287004,8.83020196 C417.81047,8.2628994 417.186446,7.82041004 416.414915,7.5027206 C415.643383,7.18503117 414.678984,7.02618883 413.521686,7.02618883 C410.912095,7.02618883 409.005987,8.09270165 407.803305,10.2257593 L407.735229,10.2257593 L407.735229,7.43464464 L405.01219,7.43464464 Z M425.298629,19.4840908 L422.4054,19.4840908 C422.450784,20.5733117 422.677702,21.498001 423.08616,22.2581864 C423.494618,23.0183719 424.03922,23.6310495 424.719983,24.0962376 C425.400746,24.5614257 426.183612,24.8961291 427.068604,25.1003581 C427.953596,25.304587 428.883958,25.4066999 429.859718,25.4066999 C430.74471,25.4066999 431.635362,25.3216058 432.5317,25.151415 C433.428038,24.9812243 434.233596,24.6805584 434.948397,24.2494085 C435.663198,23.8182585 436.241838,23.2509645 436.684334,22.5475093 C437.12683,21.8440541 437.348075,20.9590754 437.348075,19.8925466 C437.348075,19.0529388 437.183559,18.3494942 436.854524,17.7821916 C436.525488,17.2148891 436.094345,16.744035 435.561081,16.3696153 C435.027816,15.9951956 434.415139,15.6945298 433.72303,15.4676087 C433.03092,15.2406877 432.321803,15.0478077 431.595656,14.888963 C430.914892,14.7301183 430.23414,14.5769489 429.553377,14.4294502 C428.872613,14.2819516 428.259936,14.1004175 427.715325,13.8848425 C427.170715,13.6692675 426.722553,13.3969664 426.370825,13.0679309 C426.019097,12.7388954 425.843236,12.3247708 425.843236,11.8255445 C425.843236,11.3717025 425.956695,11.0029613 426.183616,10.71931 C426.410537,10.4356588 426.70553,10.2087411 427.068604,10.0385504 C427.431677,9.8683596 427.834456,9.74922785 428.276952,9.68115155 C428.719448,9.61307524 429.156265,9.5790376 429.587415,9.5790376 C430.063949,9.5790376 430.534803,9.63009406 430.999991,9.73220852 C431.465179,9.83432298 431.890649,9.99883826 432.276415,10.2257593 C432.662181,10.4526803 432.979866,10.7533462 433.229479,11.1277658 C433.479092,11.5021855 433.626588,11.9730396 433.671973,12.5403422 L436.565201,12.5403422 C436.497125,11.4738133 436.270207,10.5831617 435.884441,9.86836046 C435.498676,9.15355923 434.982438,8.58626518 434.335713,8.16646128 C433.688988,7.74665739 432.945833,7.45166448 432.106225,7.28147371 C431.266617,7.11128294 430.347601,7.02618883 429.349149,7.02618883 C428.577617,7.02618883 427.800424,7.12262882 427.017547,7.31551169 C426.234669,7.50839457 425.531225,7.80338747 424.907192,8.20049926 C424.283159,8.59761106 423.772594,9.11384864 423.375483,9.74922751 C422.978371,10.3846064 422.779818,11.1447804 422.779818,12.0297724 C422.779818,13.1643775 423.063465,14.0493562 423.630767,14.6847351 C424.19807,15.320114 424.907188,15.8136598 425.758141,16.1653874 C426.609095,16.517115 427.533785,16.7894161 428.532237,16.982299 C429.53069,17.1751819 430.455379,17.3907536 431.306333,17.6290207 C432.157287,17.8672878 432.866404,18.1792995 433.433707,18.5650652 C434.001009,18.950831 434.284656,19.518125 434.284656,20.2669644 C434.284656,20.8115749 434.148506,21.2597372 433.8762,21.6114648 C433.603895,21.9631923 433.257846,22.2298205 432.838042,22.4113574 C432.418238,22.5928942 431.95873,22.7176989 431.459504,22.7857752 C430.960277,22.8538515 430.48375,22.8878891 430.029908,22.8878891 C429.439914,22.8878891 428.866947,22.8311597 428.31099,22.7176992 C427.755034,22.6042387 427.255815,22.4170317 426.813319,22.1560725 C426.370823,21.8951133 426.013428,21.543391 425.741122,21.100895 C425.468817,20.658399 425.321321,20.1194697 425.298629,19.4840908 L425.298629,19.4840908 Z M458.553338,16.8291281 L450.452298,16.8291281 L458.485262,5.01794781 L458.553338,5.01794781 L458.553338,16.8291281 Z M461.276377,16.8291281 L461.276377,0.899351808 L458.961794,0.899351808 L447.967526,16.5908622 L447.967526,19.3819768 L458.553338,19.3819768 L458.553338,25.0322821 L461.276377,25.0322821 L461.276377,19.3819768 L464.544024,19.3819768 L464.544024,16.8291281 L461.276377,16.8291281 Z M470.023939,13.1530259 C470.023939,12.5630312 470.029612,11.910643 470.040958,11.1958418 C470.052304,10.4810406 470.109033,9.76625008 470.211148,9.05144885 C470.313262,8.33664762 470.460759,7.63887594 470.653642,6.95811287 C470.846524,6.27734979 471.130171,5.68169104 471.504591,5.17111873 C471.879011,4.66054643 472.349865,4.24642177 472.917167,3.92873234 C473.48447,3.6110429 474.176569,3.45220057 474.993484,3.45220057 C475.8104,3.45220057 476.502499,3.6110429 477.069801,3.92873234 C477.637104,4.24642177 478.107958,4.66054643 478.482378,5.17111873 C478.856797,5.68169104 479.140444,6.27734979 479.333327,6.95811287 C479.52621,7.63887594 479.673707,8.33664762 479.775821,9.05144885 C479.877936,9.76625008 479.934665,10.4810406 479.946011,11.1958418 C479.957357,11.910643 479.96303,12.5630312 479.96303,13.1530259 C479.96303,14.06071 479.934665,15.0761663 479.877935,16.1994254 C479.821205,17.3226845 479.639671,18.3778514 479.333327,19.3649578 C479.026984,20.3520643 478.533438,21.1859866 477.852675,21.8667496 C477.171912,22.5475127 476.218858,22.8878891 474.993484,22.8878891 C473.768111,22.8878891 472.815057,22.5475127 472.134294,21.8667496 C471.453531,21.1859866 470.959985,20.3520643 470.653642,19.3649578 C470.347298,18.3778514 470.165764,17.3226845 470.109034,16.1994254 C470.052304,15.0761663 470.023939,14.06071 470.023939,13.1530259 L470.023939,13.1530259 Z M466.96052,13.1870638 C466.96052,14.0720558 466.983212,14.9910722 467.028596,15.9441405 C467.073981,16.8972088 467.187439,17.8275711 467.368976,18.7352552 C467.550513,19.6429393 467.811468,20.4995533 468.15185,21.3051229 C468.492231,22.1106925 468.957412,22.8198101 469.547407,23.4324969 C470.137402,24.0451836 470.880557,24.5273836 471.776895,24.8791112 C472.673233,25.2308388 473.745419,25.4066999 474.993484,25.4066999 C476.264242,25.4066999 477.342101,25.2308388 478.227093,24.8791112 C479.112085,24.5273836 479.849567,24.0451836 480.439562,23.4324969 C481.029556,22.8198101 481.494738,22.1106925 481.835119,21.3051229 C482.175501,20.4995533 482.436456,19.6429393 482.617993,18.7352552 C482.79953,17.8275711 482.912988,16.8972088 482.958373,15.9441405 C483.003757,14.9910722 483.026449,14.0720558 483.026449,13.1870638 C483.026449,12.3020718 483.003757,11.3830555 482.958373,10.4299872 C482.912988,9.47691888 482.79953,8.54655664 482.617993,7.63887254 C482.436456,6.73118844 482.175501,5.86890148 481.835119,5.05198579 C481.494738,4.2350701 481.029556,3.5202796 480.439562,2.90759283 C479.849567,2.29490607 479.106412,1.80703318 478.210074,1.44395954 C477.313736,1.0808859 476.24155,0.899351808 474.993484,0.899351808 C473.745419,0.899351808 472.673233,1.0808859 471.776895,1.44395954 C470.880557,1.80703318 470.137402,2.29490607 469.547407,2.90759283 C468.957412,3.5202796 468.492231,4.2350701 468.15185,5.05198579 C467.811468,5.86890148 467.550513,6.73118844 467.368976,7.63887254 C467.187439,8.54655664 467.073981,9.47691888 467.028596,10.4299872 C466.983212,11.3830555 466.96052,12.3020718 466.96052,13.1870638 L466.96052,13.1870638 Z M486.327933,7.43464464 L486.327933,31.7377648 L489.221162,31.7377648 L489.221162,22.6836612 L489.289238,22.6836612 C489.606927,23.2055796 489.99836,23.642396 490.463548,23.9941236 C490.928736,24.3458512 491.422282,24.6238253 491.9442,24.8280542 C492.466119,25.0322831 492.993702,25.1797796 493.526966,25.270548 C494.060231,25.3613164 494.542431,25.4066999 494.973581,25.4066999 C496.312415,25.4066999 497.486714,25.1684364 498.496512,24.6919023 C499.506311,24.2153681 500.345906,23.56298 501.015323,22.7347182 C501.68474,21.9064565 502.183959,20.9363836 502.512994,19.8244706 C502.84203,18.7125576 503.006545,17.532586 503.006545,16.2845203 C503.006545,15.0364547 502.836357,13.8564831 502.495975,12.7445701 C502.155594,11.632657 501.650702,10.6512383 500.981285,9.80028449 C500.311868,8.94933065 499.472273,8.27425073 498.462474,7.77502447 C497.452676,7.27579822 496.267031,7.02618883 494.905505,7.02618883 C493.680131,7.02618883 492.556889,7.24743351 491.535744,7.68992951 C490.5146,8.13242551 489.765772,8.84154308 489.289238,9.81730348 L489.221162,9.81730348 L489.221162,7.43464464 L486.327933,7.43464464 Z M499.943126,16.0802924 C499.943126,16.9425923 499.852359,17.7821875 499.670823,18.5991032 C499.489286,19.4160189 499.194293,20.1421553 498.785835,20.7775342 C498.377377,21.412913 497.838448,21.9234777 497.169031,22.3092434 C496.499614,22.6950092 495.665691,22.8878891 494.667239,22.8878891 C493.668786,22.8878891 492.817845,22.7006821 492.11439,22.3262624 C491.410935,21.9518427 490.837968,21.4582969 490.395472,20.8456101 C489.952976,20.2329234 489.629618,19.5238058 489.425389,18.7182362 C489.221161,17.9126665 489.119048,17.0787443 489.119048,16.2164444 C489.119048,15.3995287 489.215488,14.5939711 489.40837,13.7997475 C489.601253,13.005524 489.913265,12.2964064 490.344415,11.6723736 C490.775565,11.0483408 491.331513,10.5434491 492.012276,10.1576833 C492.693039,9.77191757 493.521289,9.5790376 494.497049,9.5790376 C495.427425,9.5790376 496.238656,9.76057169 496.930765,10.1236453 C497.622874,10.486719 498.190168,10.9745919 498.632664,11.5872786 C499.07516,12.1999654 499.404191,12.8977371 499.619766,13.6806146 C499.83534,14.4634921 499.943126,15.2633768 499.943126,16.0802924 L499.943126,16.0802924 Z M510.348555,15.7739506 L503.745186,25.0322821 L507.251098,25.0322821 L512.152568,17.7481536 L517.054037,25.0322821 L520.764177,25.0322821 L513.956581,15.5356847 L520.015342,7.43464464 L516.543468,7.43464464 L512.152568,13.5955196 L507.931858,7.43464464 L504.221717,7.43464464 L510.348555,15.7739506 Z" id="300-Open-Sans-40px" fill="#19191A" sketch:type="MSShapeGroup"></path>
                <path d="M7.96507091,14.991077 L12.0836669,3.65642847 L12.1517429,3.65642847 L16.2022629,14.991077 L7.96507091,14.991077 Z M10.3817677,0.729161891 L0.919208329,25.0322821 L4.22089273,25.0322821 L6.94393141,17.7141156 L17.2234024,17.7141156 L19.8783651,25.0322821 L23.4523534,25.0322821 L13.955756,0.729161891 L10.3817677,0.729161891 Z M40.5395211,24.9642061 C40.0402948,25.2592035 39.3481961,25.4066999 38.4632041,25.4066999 C37.7143647,25.4066999 37.118706,25.1968011 36.67621,24.7769972 C36.233714,24.3571933 36.0124693,23.6707675 36.0124693,22.7176992 C35.2182457,23.6707675 34.2935564,24.3571933 33.2383736,24.7769972 C32.1831909,25.1968011 31.0429298,25.4066999 29.8175563,25.4066999 C29.0233327,25.4066999 28.2688316,25.3159329 27.5540304,25.134396 C26.8392292,24.9528592 26.2208787,24.6692122 25.6989603,24.2834465 C25.1770419,23.8976807 24.7629173,23.392789 24.4565739,22.7687562 C24.1502305,22.1447234 23.9970611,21.3902223 23.9970611,20.5052303 C23.9970611,19.5067778 24.1672493,18.6898744 24.5076309,18.0544955 C24.8480124,17.4191166 25.2961747,16.902879 25.8521312,16.5057672 C26.4080877,16.1086554 27.0434571,15.8079896 27.7582583,15.6037607 C28.4730595,15.3995318 29.2048689,15.2293435 29.9537082,15.0931909 C30.7479318,14.9343462 31.5024329,14.8152145 32.2172341,14.7357921 C32.9320354,14.6563697 33.5617318,14.5429109 34.1063422,14.3954123 C34.6509527,14.2479136 35.0820962,14.0323419 35.3997856,13.7486906 C35.717475,13.4650393 35.8763174,13.0509146 35.8763174,12.5063042 C35.8763174,11.8709253 35.7571856,11.3603607 35.5189185,10.9745949 C35.2806515,10.5888292 34.9743127,10.2938363 34.599893,10.0896073 C34.2254733,9.88537843 33.8056757,9.74922785 33.3404876,9.68115155 C32.8752995,9.61307524 32.4157913,9.5790376 31.9619493,9.5790376 C30.7365757,9.5790376 29.7154464,9.81162816 28.8985308,10.2768163 C28.0816151,10.7420044 27.6391257,11.6213101 27.5710494,12.91476 L24.6778208,12.91476 C24.723205,11.8255391 24.9501226,10.9065227 25.3585805,10.1576833 C25.7670383,9.40884393 26.3116406,8.8018393 26.9924037,8.3366512 C27.6731667,7.8714631 28.4503596,7.53675961 29.3240055,7.33253069 C30.1976515,7.12830176 31.1336867,7.02618883 32.1321392,7.02618883 C32.9263628,7.02618883 33.7149015,7.08291824 34.497779,7.19637875 C35.2806566,7.30983926 35.9897741,7.54242983 36.625153,7.89415741 C37.2605319,8.245885 37.7710965,8.73943083 38.1568623,9.3748097 C38.542628,10.0101886 38.735508,10.8384379 38.735508,11.8595825 L38.735508,20.9136861 C38.735508,21.5944492 38.7752186,22.0936679 38.8546409,22.4113574 C38.9340633,22.7290468 39.2006915,22.8878891 39.6545335,22.8878891 C39.9041467,22.8878891 40.1991396,22.8311597 40.5395211,22.7176992 L40.5395211,24.9642061 Z M35.8422794,15.9441405 C35.4792057,16.2164457 35.0026787,16.4149987 34.4126841,16.5398052 C33.8226894,16.6646118 33.2043389,16.7667247 32.557614,16.8461471 C31.9108891,16.9255694 31.2585009,17.0163365 30.6004299,17.1184509 C29.942359,17.2205654 29.3523731,17.3850807 28.8304548,17.6120017 C28.3085364,17.8389227 27.8830659,18.1622803 27.5540304,18.5820842 C27.2249949,19.0018881 27.0604796,19.5748551 27.0604796,20.3010024 C27.0604796,20.7775365 27.1569196,21.1803153 27.3498025,21.5093508 C27.5426854,21.8383863 27.7922948,22.1050145 28.0986381,22.3092434 C28.4049815,22.5134723 28.7623768,22.6609688 29.1708346,22.7517372 C29.5792925,22.8425056 30.0104359,22.8878891 30.464278,22.8878891 C31.4173463,22.8878891 32.2342497,22.7574115 32.9150128,22.4964523 C33.5957759,22.2354931 34.151724,21.9064626 34.582874,21.5093508 C35.0140239,21.112239 35.3317086,20.6810955 35.5359375,20.2159074 C35.7401665,19.7507193 35.8422794,19.3139029 35.8422794,18.9054451 L35.8422794,15.9441405 Z M51.3978378,14.2082033 L51.3978378,16.931242 L61.2348151,16.931242 L61.2348151,14.2082033 L51.3978378,14.2082033 Z" id="Aa---" fill="#3C5990" sketch:type="MSShapeGroup"></path>
            </g>
        </g>
    </g>
</svg>