<?xml version="1.0" encoding="UTF-8" standalone="no"?>
<svg width="300px" height="100px" viewBox="0 0 300 100" version="1.1" xmlns="http://www.w3.org/2000/svg" xmlns:xlink="http://www.w3.org/1999/xlink" xmlns:sketch="http://www.bohemiancoding.com/sketch/ns">
    <!-- Generator: Sketch 3.3.3 (12072) - http://www.bohemiancoding.com/sketch -->
    <title>SheSharp_LogoA_Neat_TurquoiseBG_</title>
    <desc>Created with Sketch.</desc>
    <defs></defs>
    <g id="LogoA" stroke="none" stroke-width="1" fill="none" fill-rule="evenodd" sketch:type="MSPage">
        <g id="SheSharp_LogoA_Neat_TurquoiseBG_" sketch:type="MSArtboardGroup">
            <path d="M176.802,38.924 L176.802,40.004 L173.633,40.004 L173.633,38.708 C173.633,33.38 171.617,29.348 166.145,29.348 C160.672,29.348 158.656,33.308 158.656,38.636 C158.656,50.877 176.873,51.093 176.873,64.99 C176.873,72.263 173.705,77.591 166.001,77.591 C158.296,77.591 155.128,72.263 155.128,64.99 L155.128,62.398 L158.296,62.398 L158.296,65.206 C158.296,70.606 160.384,74.495 165.929,74.495 C171.473,74.495 173.562,70.606 173.562,65.206 C173.562,53.109 155.344,52.894 155.344,38.853 C155.344,31.291 158.656,26.396 166.072,26.323 C173.705,26.323 176.802,31.651 176.802,38.924 Z M184.071,53.47 L184.071,77.159 L180.76,77.159 L180.76,26.755 L184.071,26.755 L184.071,50.445 L199.769,50.445 L199.769,26.755 L203.153,26.755 L203.153,77.159 L199.769,77.159 L199.769,53.47 L184.071,53.47 Z M212.295,65.998 L209.775,77.159 L206.751,77.159 L217.768,26.683 L222.592,26.683 L233.825,77.159 L230.513,77.159 L227.992,65.998 L212.295,65.998 Z M212.799,63.118 L227.488,63.118 L220.072,30.499 L212.799,63.118 Z M247.574,26.755 C255.279,26.755 258.375,31.004 258.375,38.132 L258.375,42.524 C258.375,48.429 256.071,51.813 251.103,52.965 C256.287,54.117 258.375,57.79 258.375,63.263 L258.375,71.111 C258.375,73.199 258.519,75.503 259.6,77.159 L256.144,77.159 C255.279,75.648 255.064,73.847 255.064,71.111 L255.064,63.191 C255.064,56.493 251.391,54.621 245.631,54.621 L240.374,54.621 L240.374,77.159 L237.061,77.159 L237.061,26.755 L247.574,26.755 Z M245.702,51.598 C251.606,51.598 255.064,49.941 255.064,43.173 L255.064,38.42 C255.064,33.02 252.975,29.779 247.503,29.779 L240.374,29.779 L240.374,51.598 L245.702,51.598 Z M273.998,26.755 C281.774,26.755 284.799,31.651 284.799,38.996 L284.799,44.469 C284.799,52.461 281.126,56.422 273.134,56.422 L266.869,56.422 L266.869,77.159 L263.557,77.159 L263.557,26.755 L273.998,26.755 Z M273.134,53.397 C278.966,53.397 281.486,50.805 281.486,44.685 L281.486,38.78 C281.486,33.308 279.614,29.779 273.998,29.779 L266.869,29.779 L266.869,53.397 L273.134,53.397 L273.134,53.397 Z" id="SHARP" fill="#FF6B6B" sketch:type="MSShapeGroup"></path>
            <path d="M84.21,26.179 C91.915,26.179 95.876,30.787 95.876,38.853 L95.876,40.437 L88.387,40.437 L88.387,38.348 C88.387,34.748 86.947,33.38 84.427,33.38 C81.906,33.38 80.466,34.748 80.466,38.348 C80.466,48.717 95.948,50.661 95.948,65.063 C95.948,73.127 91.915,77.735 84.139,77.735 C76.362,77.735 72.33,73.127 72.33,65.063 L72.33,61.966 L79.818,61.966 L79.818,65.566 C79.818,69.167 81.402,70.463 83.922,70.463 C86.443,70.463 88.027,69.167 88.027,65.566 C88.027,55.197 72.545,53.253 72.545,38.853 C72.545,30.787 76.506,26.179 84.21,26.179 Z M107.682,77.159 L99.761,77.159 L99.761,26.755 L107.682,26.755 L107.682,48.356 L116.683,48.356 L116.683,26.755 L124.747,26.755 L124.747,77.159 L116.683,77.159 L116.683,55.558 L107.682,55.558 L107.682,77.159 Z M137.705,47.997 L148.578,47.997 L148.578,55.197 L137.705,55.197 L137.705,69.959 L151.386,69.959 L151.386,77.159 L129.784,77.159 L129.784,26.755 L151.386,26.755 L151.386,33.956 L137.705,33.956 L137.705,47.997 Z" id="SHE" fill="#FFFFFF" sketch:type="MSShapeGroup"></path>
            <g id="Flame" sketch:type="MSLayerGroup" transform="translate(16.000000, 9.000000)">
                <path d="M19.273,68.156 C24.658,68.725 25.844,68.788 29.93,68.156 C33.881,67.545 38.848,62.227 38.848,62.227 L33.976,34.852 L24.483,23.45 L13.834,34.852 L8.007,62.227 L19.273,68.156" id="Fill-23" fill="#FFFFFF" sketch:type="MSShapeGroup"></path>
                <path d="M48.398,46.609 C48.398,53.947 44.967,60.501 39.598,64.825 C39.59,64.825 39.606,64.825 39.598,64.825 C37.943,66.253 33.45,67.545 29.93,68.156 C31.738,66.605 35.588,62.578 35.588,56.912 C35.588,52.331 33.788,49.816 32.847,47.26 C32.365,45.958 32.1,44.64 32.421,43.025 C32.204,43.459 31.61,44.97 30.934,47.317 C30.709,48.136 30.468,49.052 30.235,50.057 C29.319,53.979 31.553,55.948 31.553,55.948 C31.553,55.948 26.659,55.393 24.087,49.687 C23.838,48.932 23.637,48.225 23.476,47.566 C22.014,41.45 24.135,38.782 22.432,32.111 C22.186,36.63 19.812,38.974 18.976,40.292 C18.445,41.128 16.163,43.845 14.58,47.863 C13.671,50.154 12.997,52.87 12.997,55.908 C12.997,62.482 17.393,66.661 19.273,68.156 C15.52,67.577 11.283,66.843 8.978,64.825 C8.97,64.825 8.986,64.825 8.978,64.825 C3.609,60.501 0.198,53.276 0.198,45.938 C0.198,45.488 0.174,46.38 0.198,45.938 C1.066,24.705 24.293,15.282 18.686,0.519 C18.686,0.519 29.906,0.517 33.924,19.783 C36.673,14.583 38.626,13.98 41.093,12.831 C39.293,17.846 39.948,27.156 43.998,33.039 C44.199,33.345 43.765,32.75 43.998,33.039 C44.03,33.087 43.958,32.991 43.998,33.039 C46.634,36.824 48.398,41.691 48.398,46.609 Z M17.416,52.006 C17.416,52.006 17.629,52.149 17.969,52.306 C18.309,52.463 18.783,52.631 19.265,52.706 C19.746,52.789 20.226,52.779 20.574,52.727 C20.923,52.676 21.145,52.606 21.145,52.606 C21.425,52.516 21.726,52.672 21.815,52.953 C21.904,53.234 21.749,53.534 21.467,53.624 C21.439,53.632 21.411,53.639 21.383,53.643 L21.343,53.649 C21.343,53.649 21.053,53.689 20.619,53.679 C20.186,53.67 19.615,53.584 19.087,53.397 C18.555,53.22 18.071,52.949 17.733,52.719 C17.393,52.487 17.198,52.302 17.198,52.302 L17.188,52.292 C17.114,52.222 17.111,52.106 17.181,52.032 C17.243,51.967 17.343,51.957 17.416,52.006 Z" id="Fill-24" fill="#FF6B6B" sketch:type="MSShapeGroup"></path>
            </g>
        </g>
    </g>
</svg>