<?xml version="1.0" encoding="UTF-8" standalone="no"?>
<svg width="680px" height="90px" viewBox="0 0 680 90" version="1.1" xmlns="http://www.w3.org/2000/svg" xmlns:xlink="http://www.w3.org/1999/xlink" xmlns:sketch="http://www.bohemiancoding.com/sketch/ns">
    <!-- Generator: Sketch 3.3.3 (12072) - http://www.bohemiancoding.com/sketch -->
    <title>Typography3</title>
    <desc>Created with Sketch.</desc>
    <defs></defs>
    <g id="Page-1" stroke="none" stroke-width="1" fill="none" fill-rule="evenodd" sketch:type="MSPage">
        <g id="Typography3" sketch:type="MSArtboardGroup">
            <g id="include-women---Aven-+-#-+-include-women---Aven-Copy" sketch:type="MSLayerGroup" transform="translate(10.000000, 33.000000)">
                <path d="M204.88,14.66 L204.88,13.471 L211.666,13.471 L211.666,14.66 L204.88,14.66 Z M227.181,22.374 L226.021,17.096 L220.395,17.096 L219.235,22.374 L218.046,22.374 L222.483,2.19 L223.904,2.19 L228.428,22.374 L227.181,22.374 Z M223.179,3.988 L222.106,9.034 L220.598,15.936 L225.789,15.936 L224.281,8.976 L223.237,3.988 L223.179,3.988 Z M232.43,22.374 C231.81133,19.9959881 231.202336,17.6325117 230.603,15.2835 C230.003664,12.9344883 229.404336,10.5710119 228.805,8.193 L230.11,8.193 C230.380668,9.23700522 230.641665,10.2713282 230.893,11.296 C231.144335,12.3206718 231.395665,13.3549948 231.647,14.399 C231.879001,15.3850049 232.115832,16.3999948 232.3575,17.444 C232.599168,18.4880052 232.845665,19.5029951 233.097,20.489 L233.184,20.489 C233.416001,19.5029951 233.652832,18.4831719 233.8945,17.4295 C234.136168,16.3758281 234.382665,15.3560049 234.634,14.37 C234.904668,13.3259948 235.155999,12.2965051 235.388,11.2815 C235.620001,10.2664949 235.861665,9.23700522 236.113,8.193 L237.447,8.193 L233.793,22.374 L232.43,22.374 Z M242.696,7.99 C243.856006,7.99 244.75983,8.28483039 245.4075,8.8745 C246.05517,9.46416962 246.408,10.3099945 246.466,11.412 C246.485333,11.6246677 246.495,11.832499 246.495,12.0355 L246.495,12.659 L246.495,15.472 L239.883,15.472 L239.883,16.4 C239.883,17.0186698 239.8975,17.6614967 239.9265,18.3285 C239.9555,18.9955033 240.027999,19.4933317 240.144,19.822 C240.318001,20.3246692 240.598331,20.7209986 240.985,21.011 C241.371669,21.3010015 241.893663,21.446 242.551,21.446 C243.421004,21.446 244.063831,21.1946692 244.4795,20.692 C244.895169,20.1893308 245.132,19.5706703 245.19,18.836 L246.437,19.068 C246.340333,20.2086724 245.944003,21.0786637 245.248,21.678 C244.551997,22.2773363 243.653005,22.577 242.551,22.577 C241.970997,22.577 241.463502,22.5045007 241.0285,22.3595 C240.593498,22.2144993 240.231001,22.0260012 239.941,21.794 C239.650999,21.5619988 239.419001,21.2961682 239.245,20.9965 C239.070999,20.6968318 238.945334,20.3826683 238.868,20.054 C238.81,19.8219988 238.761667,19.5223352 238.723,19.155 C238.684333,18.7876648 238.660167,18.3961687 238.6505,17.9805 C238.640833,17.5648313 238.631167,17.1346689 238.6215,16.69 C238.611833,16.2453311 238.607,15.8296686 238.607,15.443 C238.607,14.9209974 238.611833,14.3990026 238.6215,13.877 C238.631167,13.3549974 238.6505,12.8620023 238.6795,12.398 C238.7085,11.9339977 238.752,11.5086686 238.81,11.122 C238.868,10.7353314 238.935666,10.4260012 239.013,10.194 C239.264335,9.51732995 239.679997,8.98083532 240.26,8.5845 C240.840003,8.18816469 241.651995,7.99 242.696,7.99 L242.696,7.99 Z M240.202,10.658 C240.066666,10.9866683 239.9845,11.4748301 239.9555,12.1225 C239.9265,12.7701699 239.902333,13.5386622 239.883,14.428 L245.248,14.428 L245.248,12.659 C245.248,12.2143311 245.223834,11.7793355 245.1755,11.354 C245.127166,10.9286645 245.011168,10.5516683 244.8275,10.223 C244.643832,9.89433169 244.378002,9.6333343 244.03,9.44 C243.681998,9.2466657 243.218003,9.15 242.638,9.15 C242.154664,9.15 241.690669,9.25633227 241.246,9.469 C240.801331,9.68166773 240.453335,10.0779971 240.202,10.658 L240.202,10.658 Z M250.033,9.759 L250.091,9.759 C250.419668,9.19833053 250.859497,8.76333488 251.4105,8.454 C251.961503,8.14466512 252.565663,7.99 253.223,7.99 C253.880337,7.99 254.431331,8.0866657 254.876,8.28 C255.320669,8.4733343 255.678332,8.74399826 255.949,9.092 C256.219668,9.44000174 256.412999,9.84599768 256.529,10.31 C256.645001,10.7740023 256.703,11.276664 256.703,11.818 L256.703,22.374 L255.427,22.374 L255.427,12.195 C255.427,11.788998 255.388334,11.4023352 255.311,11.035 C255.233666,10.6676648 255.098334,10.3535013 254.905,10.0925 C254.711666,9.8314987 254.450668,9.62366744 254.122,9.469 C253.793332,9.31433256 253.387336,9.237 252.904,9.237 C252.439998,9.237 252.029168,9.32883242 251.6715,9.5125 C251.313832,9.69616759 251.009335,9.93783184 250.758,10.2375 C250.506665,10.5371682 250.318167,10.8803314 250.1925,11.267 C250.066833,11.6536686 250.004,12.049998 250.004,12.456 L250.004,22.374 L248.786,22.374 L248.786,8.193 L250.033,8.193 L250.033,9.759 Z M259.487,4.742 L259.487,3.35 L260.792,3.35 L260.792,4.742 L259.487,4.742 Z M259.516,22.374 L259.516,8.193 L260.763,8.193 L260.763,22.374 L259.516,22.374 Z M269.028,9.44 C268.911999,9.42066657 268.791167,9.40616672 268.6655,9.3965 C268.539833,9.38683329 268.419001,9.382 268.303,9.382 C267.336328,9.382 266.587169,9.71066338 266.0555,10.368 C265.523831,11.0253366 265.258,11.9629939 265.258,13.181 L265.258,22.374 L264.011,22.374 L264.011,8.193 L265.258,8.193 L265.258,10.136 L265.316,10.136 C265.625335,9.38199623 266.040997,8.83583503 266.563,8.4975 C267.085003,8.15916498 267.71333,7.99 268.448,7.99 L268.738,7.99 C268.834667,7.99 268.931333,7.99966657 269.028,8.019 L269.028,9.44 Z M271,25.1 L270.246,25.1 L270.797,22.432 L270.42,22.432 L270.42,20.837 L271.957,20.837 L271.957,22.403 L271,25.1 Z M286.399,11.76 C287.327005,12.0693349 287.960165,12.6493291 288.2985,13.5 C288.636835,14.3506709 288.806,15.3559942 288.806,16.516 C288.806,17.5793386 288.690001,18.4831629 288.458,19.2275 C288.225999,19.9718371 287.892502,20.5759977 287.4575,21.04 C287.022498,21.5040023 286.500503,21.8423323 285.8915,22.055 C285.282497,22.2676677 284.591337,22.374 283.818,22.374 L279.613,22.374 L279.613,2.19 L283.847,2.19 C284.717004,2.19 285.456497,2.30116555 286.0655,2.5235 C286.674503,2.74583444 287.162665,3.07449782 287.53,3.5095 C287.897335,3.94450217 288.163166,4.47133024 288.3275,5.09 C288.491834,5.70866976 288.574,6.41432937 288.574,7.207 C288.574,8.25100522 288.429001,9.1596628 288.139,9.933 C287.848999,10.7063372 287.269004,11.295998 286.399,11.702 L286.399,11.76 Z M287.588,16.429 C287.588,15.0949933 287.322169,14.0655036 286.7905,13.3405 C286.258831,12.6154964 285.413006,12.253 284.253,12.253 L280.86,12.253 L280.86,21.214 L283.847,21.214 C284.601004,21.214 285.224498,21.0835013 285.7175,20.8225 C286.210502,20.5614987 286.592332,20.2135022 286.863,19.7785 C287.133668,19.3434978 287.322166,18.8360029 287.4285,18.256 C287.534834,17.6759971 287.588,17.0670032 287.588,16.429 L287.588,16.429 Z M287.356,7.207 C287.356,5.95032705 287.075669,4.98850333 286.515,4.3215 C285.954331,3.65449666 284.987674,3.321 283.615,3.321 L280.86,3.321 L280.86,11.18 L284.108,11.18 C285.326006,11.18 286.171831,10.8368368 286.6455,10.1505 C287.119169,9.46416323 287.356,8.48300638 287.356,7.207 L287.356,7.207 Z M295.099,7.99 C296.162339,7.99 296.974331,8.19299797 297.535,8.599 C298.095669,9.00500203 298.482332,9.51733024 298.695,10.136 C298.791667,10.3873346 298.864166,10.7208313 298.9125,11.1365 C298.960834,11.5521687 298.9995,12.0064975 299.0285,12.4995 C299.0575,12.9925025 299.072,13.4951641 299.072,14.0075 L299.072,15.443 L299.072,15.878 C299.072,16.3806692 299.067167,16.8929974 299.0575,17.415 C299.047833,17.9370026 299.014,18.5073302 298.956,19.126 C298.898,19.8026701 298.738501,20.3633311 298.4775,20.808 C298.216499,21.2526689 297.897502,21.6054987 297.5205,21.8665 C297.143498,22.1275013 296.732669,22.3111661 296.288,22.4175 C295.843331,22.5238339 295.408335,22.577 294.983,22.577 C293.822994,22.577 292.957836,22.340169 292.3875,21.8665 C291.817164,21.392831 291.425668,20.7886703 291.213,20.054 C291.155,19.8219988 291.106667,19.5271685 291.068,19.1695 C291.029333,18.8118315 291.000333,18.4203355 290.981,17.995 C290.961667,17.5696645 290.952,17.1346689 290.952,16.69 L290.952,15.443 C290.952,14.9209974 290.956833,14.4038359 290.9665,13.8915 C290.976167,13.3791641 290.9955,12.8910023 291.0245,12.427 C291.0535,11.9629977 291.097,11.5425019 291.155,11.1655 C291.213,10.7884981 291.280666,10.4840012 291.358,10.252 C291.609335,9.57532995 292.034664,9.02916875 292.634,8.6135 C293.233336,8.19783126 294.054995,7.99 295.099,7.99 L295.099,7.99 Z M295.07,9.121 C294.567331,9.121 294.084002,9.22249898 293.62,9.4255 C293.155998,9.62850101 292.808001,10.0199971 292.576,10.6 C292.421333,10.9866686 292.324667,11.5908292 292.286,12.4125 C292.247333,13.2341708 292.228,14.1863279 292.228,15.269 L292.228,15.994 C292.228,16.9220046 292.2425,17.7049968 292.2715,18.343 C292.3005,18.9810032 292.372999,19.4739983 292.489,19.822 C292.663001,20.3440026 292.957831,20.7451653 293.3735,21.0255 C293.789169,21.3058347 294.354663,21.446 295.07,21.446 C295.708003,21.446 296.258998,21.2720017 296.723,20.924 C297.187002,20.5759983 297.496333,20.0926698 297.651,19.474 C297.728334,19.1453317 297.7815,18.6233369 297.8105,17.908 C297.8395,17.1926631 297.854,16.4290041 297.854,15.617 C297.854,15.1916645 297.849167,14.7373357 297.8395,14.254 C297.829833,13.7706642 297.820167,13.3066689 297.8105,12.862 C297.800833,12.4173311 297.776667,12.0161685 297.738,11.6585 C297.699333,11.3008315 297.651,11.0253343 297.593,10.832 C297.418999,10.2519971 297.104836,9.82183473 296.6505,9.5415 C296.196164,9.26116526 295.669336,9.121 295.07,9.121 L295.07,9.121 Z M305.22,7.99 C306.283339,7.99 307.095331,8.19299797 307.656,8.599 C308.216669,9.00500203 308.603332,9.51733024 308.816,10.136 C308.912667,10.3873346 308.985166,10.7208313 309.0335,11.1365 C309.081834,11.5521687 309.1205,12.0064975 309.1495,12.4995 C309.1785,12.9925025 309.193,13.4951641 309.193,14.0075 L309.193,15.443 L309.193,15.878 C309.193,16.3806692 309.188167,16.8929974 309.1785,17.415 C309.168833,17.9370026 309.135,18.5073302 309.077,19.126 C309.019,19.8026701 308.859501,20.3633311 308.5985,20.808 C308.337499,21.2526689 308.018502,21.6054987 307.6415,21.8665 C307.264498,22.1275013 306.853669,22.3111661 306.409,22.4175 C305.964331,22.5238339 305.529335,22.577 305.104,22.577 C303.943994,22.577 303.078836,22.340169 302.5085,21.8665 C301.938164,21.392831 301.546668,20.7886703 301.334,20.054 C301.276,19.8219988 301.227667,19.5271685 301.189,19.1695 C301.150333,18.8118315 301.121333,18.4203355 301.102,17.995 C301.082667,17.5696645 301.073,17.1346689 301.073,16.69 L301.073,15.443 C301.073,14.9209974 301.077833,14.4038359 301.0875,13.8915 C301.097167,13.3791641 301.1165,12.8910023 301.1455,12.427 C301.1745,11.9629977 301.218,11.5425019 301.276,11.1655 C301.334,10.7884981 301.401666,10.4840012 301.479,10.252 C301.730335,9.57532995 302.155664,9.02916875 302.755,8.6135 C303.354336,8.19783126 304.175995,7.99 305.22,7.99 L305.22,7.99 Z M305.191,9.121 C304.688331,9.121 304.205002,9.22249898 303.741,9.4255 C303.276998,9.62850101 302.929001,10.0199971 302.697,10.6 C302.542333,10.9866686 302.445667,11.5908292 302.407,12.4125 C302.368333,13.2341708 302.349,14.1863279 302.349,15.269 L302.349,15.994 C302.349,16.9220046 302.3635,17.7049968 302.3925,18.343 C302.4215,18.9810032 302.493999,19.4739983 302.61,19.822 C302.784001,20.3440026 303.078831,20.7451653 303.4945,21.0255 C303.910169,21.3058347 304.475663,21.446 305.191,21.446 C305.829003,21.446 306.379998,21.2720017 306.844,20.924 C307.308002,20.5759983 307.617333,20.0926698 307.772,19.474 C307.849334,19.1453317 307.9025,18.6233369 307.9315,17.908 C307.9605,17.1926631 307.975,16.4290041 307.975,15.617 C307.975,15.1916645 307.970167,14.7373357 307.9605,14.254 C307.950833,13.7706642 307.941167,13.3066689 307.9315,12.862 C307.921833,12.4173311 307.897667,12.0161685 307.859,11.6585 C307.820333,11.3008315 307.772,11.0253343 307.714,10.832 C307.539999,10.2519971 307.225836,9.82183473 306.7715,9.5415 C306.317164,9.26116526 305.790336,9.121 305.191,9.121 L305.191,9.121 Z M312.673,16.574 L312.702,16.574 L317.951,8.222 L319.343,8.222 L316.037,13.442 L320.126,22.374 L318.734,22.374 L315.254,14.602 L312.673,18.691 L312.673,22.374 L311.455,22.374 L311.455,1.32 L312.673,1.32 L312.673,16.574 Z M330.421,3.176 C329.74433,3.176 329.149836,3.42733082 328.6375,3.93 C328.125164,4.43266918 327.869,5.28332734 327.869,6.482 L326.651,6.279 C326.689667,4.84832618 327.042497,3.78017019 327.7095,3.0745 C328.376503,2.3688298 329.299661,2.016 330.479,2.016 C331.83234,2.016 332.80383,2.40749608 333.3935,3.1905 C333.98317,3.97350391 334.278,5.00299362 334.278,6.279 C334.278,7.20700464 334.191001,8.00932995 334.017,8.686 C333.842999,9.36267005 333.572335,10.0586631 333.205,10.774 L328.014,21.214 L334.104,21.214 L334.104,22.374 L326.651,22.374 L326.651,21.214 L332.219,10.02 C332.528335,9.40133024 332.731333,8.79233633 332.828,8.193 C332.924667,7.59366367 332.973,6.95567005 332.973,6.279 C332.973,5.8923314 332.939167,5.51050188 332.8715,5.1335 C332.803833,4.75649811 332.678168,4.42300145 332.4945,4.133 C332.310832,3.84299855 332.054668,3.61100087 331.726,3.437 C331.397332,3.26299913 330.962336,3.176 330.421,3.176 L330.421,3.176 Z M338.106,10.136 C338.106,10.8513369 338.337998,11.411998 338.802,11.818 C339.266002,12.224002 339.86533,12.427 340.6,12.427 C341.006002,12.427 341.368498,12.3448342 341.6875,12.1805 C342.006502,12.0161658 342.272332,11.8035013 342.485,11.5425 C342.697668,11.2814987 342.857166,10.981835 342.9635,10.6435 C343.069834,10.305165 343.123,9.96200174 343.123,9.614 L343.123,5.438 C343.123,4.72266309 342.891002,4.16200203 342.427,3.756 C341.962998,3.34999797 341.36367,3.147 340.629,3.147 C339.89433,3.147 339.290169,3.34999797 338.8165,3.756 C338.342831,4.16200203 338.106,4.72266309 338.106,5.438 L338.106,10.136 Z M342.195,12.833 C341.982332,13.0456677 341.697168,13.2244993 341.3395,13.3695 C340.981832,13.5145007 340.629002,13.587 340.281,13.587 C339.236995,13.587 338.410503,13.282503 337.8015,12.6735 C337.192497,12.064497 336.888,11.2090055 336.888,10.107 L336.888,5.525 C336.888,4.92566367 336.989499,4.40850217 337.1925,3.9735 C337.395501,3.53849782 337.666165,3.17600145 338.0045,2.886 C338.342835,2.59599855 338.739164,2.37850072 339.1935,2.2335 C339.647836,2.08849927 340.126331,2.016 340.629,2.016 C341.692339,2.016 342.581663,2.30116381 343.297,2.8715 C344.012337,3.44183618 344.37,4.32632734 344.37,5.525 L344.37,9.266 C344.37,9.90400319 344.321667,10.4501644 344.225,10.9045 C344.128333,11.3588356 344.012334,11.7793314 343.877,12.166 L339.962,22.374 L338.686,22.374 C338.821334,22.0453317 339.000166,21.5861696 339.2225,20.9965 C339.444834,20.4068304 339.686499,19.7640035 339.9475,19.068 C340.208501,18.3719965 340.474332,17.6663369 340.745,16.951 C341.015668,16.2356631 341.262166,15.5831696 341.4845,14.9935 C341.706834,14.4038304 341.890499,13.9108353 342.0355,13.5145 C342.180501,13.1181647 342.262667,12.9006669 342.282,12.862 L342.195,12.833 Z M350.895,9.208 C350.024996,9.208 349.329003,9.48833053 348.807,10.049 C348.284997,10.6096695 348.024,11.3443288 348.024,12.253 L348.024,18.111 C348.024,18.5363355 348.081999,18.9471647 348.198,19.3435 C348.314001,19.7398353 348.487999,20.0878318 348.72,20.3875 C348.952001,20.6871682 349.241998,20.9288324 349.59,21.1125 C349.938002,21.2961676 350.343998,21.388 350.808,21.388 C351.388003,21.388 351.900331,21.2333349 352.345,20.924 C352.789669,20.6146651 353.089333,20.1603363 353.244,19.561 C353.302,19.3676657 353.3455,19.101835 353.3745,18.7635 C353.4035,18.425165 353.427667,18.0481687 353.447,17.6325 C353.466333,17.2168313 353.476,16.7818356 353.476,16.3275 L353.476,14.979 C353.476,14.0703288 353.4615,13.2631702 353.4325,12.5575 C353.4035,11.8518298 353.340667,11.3346683 353.244,11.006 C353.050666,10.3293299 352.760669,9.8605013 352.374,9.5995 C351.987331,9.33849869 351.494336,9.208 350.895,9.208 L350.895,9.208 Z M351.185,8.019 C351.533002,8.019 351.900331,8.06733285 352.287,8.164 C352.673669,8.26066715 353.031332,8.43466541 353.36,8.686 C353.688668,8.93733459 353.973832,9.28049783 354.2155,9.7155 C354.457168,10.1505022 354.607,10.70633 354.665,11.383 C354.723,12.0016698 354.756833,12.5961638 354.7665,13.1665 C354.776167,13.7368362 354.781,14.292664 354.781,14.834 L354.781,15.24 C354.781,16.3420055 354.761667,17.3279957 354.723,18.198 C354.684333,19.0680044 354.558668,19.8123302 354.346,20.431 C354.133332,21.0303363 353.770836,21.5378313 353.2585,21.9535 C352.746164,22.3691687 351.987338,22.577 350.982,22.577 C350.208663,22.577 349.570669,22.3981685 349.068,22.0405 C348.565331,21.6828315 348.236667,21.3300017 348.082,20.982 L348.024,20.982 L348.024,28 L346.806,28 L346.806,8.222 L348.024,8.222 L348.024,9.556 L348.082,9.556 C348.410668,9.07266425 348.811831,8.69566802 349.2855,8.425 C349.759169,8.15433198 350.392329,8.019 351.185,8.019 L351.185,8.019 Z M356.376,8.193 L358,8.193 L358,4.307 L359.247,4.307 L359.247,8.193 L361.393,8.193 L361.393,9.208 L359.247,9.208 L359.247,19.039 C359.247,19.7543369 359.396832,20.3004981 359.6965,20.6775 C359.996168,21.0545019 360.503663,21.243 361.219,21.243 L361.538,21.243 L361.538,22.374 L360.987,22.374 C358.995657,22.374 358,21.3106773 358,19.184 L358,9.208 L356.376,9.208 L356.376,8.193 Z" id="include-women---Aven" fill="#000000" sketch:type="MSShapeGroup"></path>
                <path d="M4.959,15.428 L8.816,15.428 L9.454,10.73 L5.597,10.73 L4.959,15.428 Z M2.958,17.168 L0,17.168 L0,15.428 L3.19,15.428 L3.828,10.73 L0.696,10.73 L0.696,8.99 L4.089,8.99 L4.93,2.842 L6.699,2.842 L5.858,8.99 L9.715,8.99 L10.556,2.842 L12.325,2.842 L11.484,8.99 L14.094,8.99 L14.094,10.73 L11.223,10.73 L10.585,15.428 L13.34,15.428 L13.34,17.168 L10.353,17.168 L9.483,23.374 L7.714,23.374 L8.584,17.168 L4.727,17.168 L3.857,23.374 L2.088,23.374 L2.958,17.168 Z" id="#" fill="#556270" sketch:type="MSShapeGroup"></path>
                <path d="M19.857,3.582 C19.857,3.98800203 19.7120015,4.32149869 19.422,4.5825 C19.1319986,4.8435013 18.8130017,4.974 18.465,4.974 C18.1169983,4.974 17.7980015,4.8435013 17.508,4.5825 C17.2179986,4.32149869 17.073,3.98800203 17.073,3.582 C17.073,3.17599797 17.2179986,2.8425013 17.508,2.5815 C17.7980015,2.32049869 18.1169983,2.19 18.465,2.19 C18.8130017,2.19 19.1319986,2.32049869 19.422,2.5815 C19.7120015,2.8425013 19.857,3.17599797 19.857,3.582 L19.857,3.582 Z M19.422,22.374 L17.508,22.374 L17.508,8.802 L19.422,8.802 L19.422,22.374 Z M24.4199999,8.802 C24.4586668,9.16933517 24.4828332,9.53183155 24.4924999,9.8895 C24.5021667,10.2471685 24.5069999,10.6096648 24.5069999,10.977 L24.5649999,10.977 C24.7776677,10.6096648 25.0483316,10.2713349 25.3769999,9.962 C25.7056683,9.65266512 26.0729979,9.38683445 26.4789999,9.1645 C26.885002,8.94216556 27.3151643,8.7681673 27.7694999,8.6425 C28.2238355,8.51683271 28.6733311,8.454 29.1179999,8.454 C30.8580086,8.454 32.1436625,8.91316208 32.9749999,9.8315 C33.8063374,10.7498379 34.2219999,12.0596582 34.2219999,13.761 L34.2219999,22.374 L32.3079999,22.374 L32.3079999,14.863 C32.3079999,13.3549925 32.0470026,12.1998373 31.5249999,11.3975 C31.0029973,10.5951627 30.0363403,10.194 28.6249999,10.194 C28.5283328,10.194 28.2576688,10.2326663 27.8129999,10.31 C27.3683311,10.3873337 26.8995024,10.5999983 26.4064999,10.948 C25.9134975,11.2960017 25.4736685,11.8179965 25.0869999,12.514 C24.7003313,13.2100035 24.5069999,14.1766605 24.5069999,15.414 L24.5069999,22.374 L22.5929999,22.374 L22.5929999,11.789 C22.5929999,11.4216648 22.5785001,10.9576695 22.5494999,10.397 C22.5204998,9.83633053 22.4866668,9.30466918 22.4479999,8.802 L24.4199999,8.802 Z M47.2659999,11.992 C46.9373316,11.4893308 46.4781695,11.0640017 45.8884999,10.716 C45.2988303,10.3679983 44.6270037,10.194 43.8729999,10.194 C43.0803293,10.1746666 42.3698364,10.300332 41.7414999,10.571 C41.1131634,10.841668 40.5766688,11.2186643 40.1319999,11.702 C39.687331,12.1853357 39.3490011,12.7604967 39.1169999,13.4275 C38.8849987,14.0945033 38.7689999,14.8146628 38.7689999,15.588 C38.7689999,16.3613372 38.8849987,17.0814967 39.1169999,17.7485 C39.3490011,18.4155033 39.687331,18.9906643 40.1319999,19.474 C40.5766688,19.9573357 41.1131634,20.334332 41.7414999,20.605 C42.3698364,20.875668 43.0803293,21.0013334 43.8729999,20.982 C44.6270037,20.982 45.2988303,20.8080017 45.8884999,20.46 C46.4781695,20.1119983 46.9373316,19.6866692 47.2659999,19.184 L48.8319999,20.373 C48.1553299,21.1656706 47.3916708,21.7504981 46.5409999,22.1275 C45.690329,22.5045019 44.8010045,22.7026666 43.8729999,22.722 C42.7709944,22.7413334 41.7753377,22.5721685 40.8859999,22.2145 C39.9966621,21.8568315 39.2378364,21.3590032 38.6094999,20.721 C37.9811634,20.0829968 37.5026682,19.3241711 37.1739999,18.4445 C36.8453316,17.5648289 36.6809999,16.6126718 36.6809999,15.588 C36.6809999,14.5633282 36.8453316,13.6111711 37.1739999,12.7315 C37.5026682,11.8518289 37.9811634,11.0930032 38.6094999,10.455 C39.2378364,9.81699681 39.9966621,9.31916846 40.8859999,8.9615 C41.7753377,8.60383155 42.7709944,8.43466657 43.8729999,8.454 C44.8010045,8.47333343 45.690329,8.67149812 46.5409999,9.0485 C47.3916708,9.42550189 48.1553299,10.0103294 48.8319999,10.803 L47.2659999,11.992 Z M52.9639999,22.374 L51.0499999,22.374 L51.0499999,0.45 L52.9639999,0.45 L52.9639999,22.374 Z M66.0369999,22.374 C65.998333,22.0066648 65.9741666,21.6441685 65.9644999,21.2865 C65.9548332,20.9288315 65.9499999,20.5663352 65.9499999,20.199 L65.8919999,20.199 C65.6793321,20.5663352 65.4086682,20.9046651 65.0799999,21.214 C64.7513316,21.5233349 64.3840019,21.7891656 63.9779999,22.0115 C63.5719978,22.2338344 63.1418355,22.4078327 62.6874999,22.5335 C62.2331643,22.6591673 61.7836688,22.722 61.3389999,22.722 C59.5989912,22.722 58.3133374,22.2628379 57.4819999,21.3445 C56.6506624,20.4261621 56.2349999,19.1163418 56.2349999,17.415 L56.2349999,8.802 L58.1489999,8.802 L58.1489999,16.313 C58.1489999,17.0670038 58.2069993,17.7339971 58.3229999,18.314 C58.4390004,18.8940029 58.6371651,19.3821647 58.9174999,19.7785 C59.1978346,20.1748353 59.5748308,20.474499 60.0484999,20.6775 C60.5221689,20.880501 61.116663,20.982 61.8319999,20.982 C61.928667,20.982 62.199331,20.9433337 62.6439999,20.866 C63.0886688,20.7886663 63.5574974,20.5760017 64.0504999,20.228 C64.5435023,19.8799983 64.9833313,19.3580035 65.3699999,18.662 C65.7566685,17.9659965 65.9499999,16.9993395 65.9499999,15.762 L65.9499999,8.802 L67.8639999,8.802 L67.8639999,19.387 C67.8639999,19.7543352 67.8784997,20.2183305 67.9074999,20.779 C67.9365,21.3396695 67.970333,21.8713308 68.0089999,22.374 L66.0369999,22.374 Z M72.4832856,15.588 C72.4832856,16.3420038 72.6041177,17.0476634 72.8457856,17.705 C73.0874535,18.3623366 73.4306167,18.9326643 73.8752856,19.416 C74.3199545,19.8993358 74.8564491,20.2811653 75.4847856,20.5615 C76.1131221,20.8418347 76.823615,20.982 77.6162856,20.982 C78.3896228,20.982 79.1097823,20.8418347 79.7767856,20.5615 C80.4437889,20.2811653 81.0189498,19.8993358 81.5022856,19.416 C81.9856213,18.9326643 82.3626176,18.3623366 82.6332856,17.705 C82.9039536,17.0476634 83.0392856,16.3420038 83.0392856,15.588 C83.0392856,14.8339962 82.9039536,14.1283366 82.6332856,13.471 C82.3626176,12.8136634 81.9856213,12.2433358 81.5022856,11.76 C81.0189498,11.2766643 80.4437889,10.8948347 79.7767856,10.6145 C79.1097823,10.3341653 78.3896228,10.194 77.6162856,10.194 C76.823615,10.194 76.1131221,10.3341653 75.4847856,10.6145 C74.8564491,10.8948347 74.3199545,11.2766643 73.8752856,11.76 C73.4306167,12.2433358 73.0874535,12.8136634 72.8457856,13.471 C72.6041177,14.1283366 72.4832856,14.8339962 72.4832856,15.588 L72.4832856,15.588 Z M84.8662856,22.374 L82.9522856,22.374 L82.9522856,20.112 L82.8942856,20.112 C82.5849507,20.5760023 82.2176211,20.9723317 81.7922856,21.301 C81.3669501,21.6296683 80.9222879,21.9003323 80.4582856,22.113 C79.9942833,22.3256677 79.5157881,22.4803328 79.0227856,22.577 C78.5297831,22.6736671 78.0609545,22.722 77.6162856,22.722 C76.5529469,22.722 75.5814567,22.5431685 74.7017856,22.1855 C73.8221145,21.8278315 73.0632888,21.3300032 72.4252856,20.692 C71.7872824,20.0539968 71.2894541,19.3000043 70.9317856,18.43 C70.5741171,17.5599956 70.3952856,16.6126718 70.3952856,15.588 C70.3952856,14.5633282 70.5741171,13.6160043 70.9317856,12.746 C71.2894541,11.8759956 71.7872824,11.1220032 72.4252856,10.484 C73.0632888,9.84599681 73.8221145,9.34816845 74.7017856,8.9905 C75.5814567,8.63283154 76.5529469,8.454 77.6162856,8.454 C78.0609545,8.454 78.5297831,8.50233285 79.0227856,8.599 C79.5157881,8.69566715 79.9942833,8.85033227 80.4582856,9.063 C80.9222879,9.27566773 81.3669501,9.54633169 81.7922856,9.875 C82.2176211,10.2036683 82.5849507,10.5999977 82.8942856,11.064 L82.9522856,11.064 L82.9522856,0.45 L84.8662856,0.45 L84.8662856,22.374 Z M98.5625713,14.544 C98.5625713,13.2486602 98.1759085,12.1998373 97.4025713,11.3975 C96.6292341,10.5951627 95.5465783,10.194 94.1545713,10.194 C93.5359016,10.194 92.9365742,10.3148321 92.3565713,10.5565 C91.7765684,10.7981679 91.2690735,11.121998 90.8340713,11.528 C90.3990692,11.934002 90.0510726,12.3979974 89.7900713,12.92 C89.52907,13.4420026 89.3985713,13.9833305 89.3985713,14.544 L98.5625713,14.544 Z M89.3405713,16.11 C89.3985716,16.7866701 89.5629033,17.4246637 89.8335713,18.024 C90.1042393,18.6233363 90.4619024,19.1404978 90.9065713,19.5755 C91.3512402,20.0105022 91.8635684,20.3536654 92.4435713,20.605 C93.0235742,20.8563346 93.6519013,20.982 94.3285713,20.982 C95.3532431,20.982 96.2377343,20.745169 96.9820713,20.2715 C97.7264084,19.797831 98.2919027,19.2516698 98.6785713,18.633 L100.157571,19.851 C99.3455673,20.8756718 98.4514095,21.6103311 97.4750713,22.055 C96.4987331,22.4996689 95.4499103,22.722 94.3285713,22.722 C93.323233,22.722 92.390409,22.5431685 91.5300713,22.1855 C90.6697337,21.8278315 89.9302411,21.3300032 89.3115713,20.692 C88.6929016,20.0539968 88.2047398,19.3000044 87.8470713,18.43 C87.4894029,17.5599957 87.3105713,16.6126718 87.3105713,15.588 C87.3105713,14.5633282 87.4845696,13.6160044 87.8325713,12.746 C88.1805731,11.8759957 88.6639016,11.1220032 89.2825713,10.484 C89.9012411,9.84599681 90.6262338,9.34816846 91.4575713,8.9905 C92.2889088,8.63283155 93.1878998,8.454 94.1545713,8.454 C95.1792431,8.454 96.0975673,8.63766483 96.9095713,9.005 C97.7215754,9.37233517 98.4030686,9.86049696 98.9540713,10.4695 C99.5050741,11.078503 99.9255699,11.7938292 100.215571,12.6155 C100.505573,13.4371708 100.650571,14.3119954 100.650571,15.24 L100.650571,16.11 L89.3405713,16.11 Z M109.996857,8.802 L113.128857,19.822 L113.186857,19.822 L116.811857,8.802 L118.783857,8.802 L122.408857,19.822 L122.466857,19.822 L125.598857,8.802 L127.860857,8.802 L123.568857,22.374 L121.422857,22.374 L117.826857,11.238 L117.768857,11.238 L114.172857,22.374 L112.026857,22.374 L107.734857,8.802 L109.996857,8.802 Z M140.948143,15.588 C140.948143,14.8339962 140.827311,14.1283366 140.585643,13.471 C140.343975,12.8136634 140.000812,12.2433358 139.556143,11.76 C139.111474,11.2766643 138.574979,10.8948347 137.946643,10.6145 C137.318306,10.3341653 136.607813,10.194 135.815143,10.194 C135.022472,10.194 134.311979,10.3341653 133.683643,10.6145 C133.055306,10.8948347 132.523645,11.2766643 132.088643,11.76 C131.653641,12.2433358 131.315311,12.8136634 131.073643,13.471 C130.831975,14.1283366 130.711143,14.8339962 130.711143,15.588 C130.711143,16.3420038 130.831975,17.0476634 131.073643,17.705 C131.315311,18.3623366 131.653641,18.9326643 132.088643,19.416 C132.523645,19.8993358 133.055306,20.2811653 133.683643,20.5615 C134.311979,20.8418347 135.022472,20.982 135.815143,20.982 C136.607813,20.982 137.318306,20.8418347 137.946643,20.5615 C138.574979,20.2811653 139.111474,19.8993358 139.556143,19.416 C140.000812,18.9326643 140.343975,18.3623366 140.585643,17.705 C140.827311,17.0476634 140.948143,16.3420038 140.948143,15.588 L140.948143,15.588 Z M143.036143,15.588 C143.036143,16.6126718 142.857311,17.5599957 142.499643,18.43 C142.141974,19.3000044 141.644146,20.0539968 141.006143,20.692 C140.36814,21.3300032 139.609314,21.8278315 138.729643,22.1855 C137.849972,22.5431685 136.878481,22.722 135.815143,22.722 C134.771138,22.722 133.809314,22.5431685 132.929643,22.1855 C132.049972,21.8278315 131.291146,21.3300032 130.653143,20.692 C130.01514,20.0539968 129.517311,19.3000044 129.159643,18.43 C128.801974,17.5599957 128.623143,16.6126718 128.623143,15.588 C128.623143,14.5633282 128.801974,13.6160044 129.159643,12.746 C129.517311,11.8759957 130.01514,11.1220032 130.653143,10.484 C131.291146,9.84599681 132.049972,9.34816846 132.929643,8.9905 C133.809314,8.63283155 134.771138,8.454 135.815143,8.454 C136.878481,8.454 137.849972,8.63283155 138.729643,8.9905 C139.609314,9.34816846 140.36814,9.84599681 141.006143,10.484 C141.644146,11.1220032 142.141974,11.8759957 142.499643,12.746 C142.857311,13.6160044 143.036143,14.5633282 143.036143,15.588 L143.036143,15.588 Z M144.876143,11.818 C144.876143,11.3153308 144.861643,10.8126692 144.832643,10.31 C144.803643,9.80733082 144.76981,9.30466918 144.731143,8.802 L146.790143,8.802 L146.790143,10.861 L146.848143,10.861 C147.312145,10.0683294 147.954972,9.46900203 148.776643,9.063 C149.598314,8.65699797 150.415139,8.454 151.227143,8.454 C151.594478,8.454 151.985974,8.49266628 152.401643,8.57 C152.817312,8.64733372 153.218474,8.78749899 153.605143,8.9905 C153.991811,9.19350102 154.354308,9.47866483 154.692643,9.846 C155.030978,10.2133352 155.316142,10.6869971 155.548143,11.267 C155.934811,10.3969957 156.548639,9.71066918 157.389643,9.208 C158.230647,8.70533082 159.105472,8.454 160.014143,8.454 C161.754151,8.454 163.039805,8.91316208 163.871143,9.8315 C164.70248,10.7498379 165.118143,12.0596582 165.118143,13.761 L165.118143,22.374 L163.204143,22.374 L163.204143,14.457 C163.204143,13.0843265 162.962479,12.0306703 162.479143,11.296 C161.995807,10.5613297 161.096816,10.194 159.782143,10.194 C159.066806,10.194 158.467479,10.3341653 157.984143,10.6145 C157.500807,10.8948347 157.109311,11.2669977 156.809643,11.731 C156.509975,12.1950023 156.292477,12.7218304 156.157143,13.3115 C156.021809,13.9011696 155.954143,14.5149968 155.954143,15.153 L155.954143,22.374 L154.040143,22.374 L154.040143,14.457 C154.040143,13.0843265 153.798479,12.0306703 153.315143,11.296 C152.831807,10.5613297 151.932816,10.194 150.618143,10.194 C150.502142,10.194 150.236312,10.2326663 149.820643,10.31 C149.404974,10.3873337 148.974812,10.5999983 148.530143,10.948 C148.085474,11.2960017 147.684311,11.8179965 147.326643,12.514 C146.968974,13.2100035 146.790143,14.1766605 146.790143,15.414 L146.790143,22.374 L144.876143,22.374 L144.876143,11.818 Z M179.104429,14.544 C179.104429,13.2486602 178.717766,12.1998373 177.944429,11.3975 C177.171091,10.5951627 176.088435,10.194 174.696429,10.194 C174.077759,10.194 173.478431,10.3148321 172.898429,10.5565 C172.318426,10.7981679 171.810931,11.121998 171.375929,11.528 C170.940926,11.934002 170.59293,12.3979974 170.331929,12.92 C170.070927,13.4420026 169.940429,13.9833305 169.940429,14.544 L179.104429,14.544 Z M169.882429,16.11 C169.940429,16.7866701 170.104761,17.4246637 170.375429,18.024 C170.646097,18.6233363 171.00376,19.1404978 171.448429,19.5755 C171.893097,20.0105022 172.405426,20.3536654 172.985429,20.605 C173.565431,20.8563346 174.193758,20.982 174.870429,20.982 C175.8951,20.982 176.779591,20.745169 177.523929,20.2715 C178.268266,19.797831 178.83376,19.2516698 179.220429,18.633 L180.699429,19.851 C179.887424,20.8756718 178.993267,21.6103311 178.016929,22.055 C177.04059,22.4996689 175.991767,22.722 174.870429,22.722 C173.86509,22.722 172.932266,22.5431685 172.071929,22.1855 C171.211591,21.8278315 170.472098,21.3300032 169.853429,20.692 C169.234759,20.0539968 168.746597,19.3000044 168.388929,18.43 C168.03126,17.5599957 167.852429,16.6126718 167.852429,15.588 C167.852429,14.5633282 168.026427,13.6160044 168.374429,12.746 C168.72243,11.8759957 169.205759,11.1220032 169.824429,10.484 C170.443098,9.84599681 171.168091,9.34816846 171.999429,8.9905 C172.830766,8.63283155 173.729757,8.454 174.696429,8.454 C175.7211,8.454 176.639424,8.63766483 177.451429,9.005 C178.263433,9.37233517 178.944926,9.86049696 179.495929,10.4695 C180.046931,11.078503 180.467427,11.7938292 180.757429,12.6155 C181.04743,13.4371708 181.192429,14.3119954 181.192429,15.24 L181.192429,16.11 L169.882429,16.11 Z M185.259429,8.802 C185.298095,9.16933517 185.322262,9.53183155 185.331929,9.8895 C185.341595,10.2471685 185.346429,10.6096648 185.346429,10.977 L185.404429,10.977 C185.617096,10.6096648 185.88776,10.2713349 186.216429,9.962 C186.545097,9.65266512 186.912426,9.38683445 187.318429,9.1645 C187.724431,8.94216556 188.154593,8.7681673 188.608929,8.6425 C189.063264,8.51683271 189.51276,8.454 189.957429,8.454 C191.697437,8.454 192.983091,8.91316208 193.814429,9.8315 C194.645766,10.7498379 195.061429,12.0596582 195.061429,13.761 L195.061429,22.374 L193.147429,22.374 L193.147429,14.863 C193.147429,13.3549925 192.886431,12.1998373 192.364429,11.3975 C191.842426,10.5951627 190.875769,10.194 189.464429,10.194 C189.367761,10.194 189.097097,10.2326663 188.652429,10.31 C188.20776,10.3873337 187.738931,10.5999983 187.245929,10.948 C186.752926,11.2960017 186.313097,11.8179965 185.926429,12.514 C185.53976,13.2100035 185.346429,14.1766605 185.346429,15.414 L185.346429,22.374 L183.432429,22.374 L183.432429,11.789 C183.432429,11.4216648 183.417929,10.9576695 183.388929,10.397 C183.359928,9.83633053 183.326095,9.30466918 183.287429,8.802 L185.259429,8.802 Z" id="include-women---Aven-Copy" fill="#556270" sketch:type="MSShapeGroup"></path>
            </g>
        </g>
    </g>
</svg>