<?xml version="1.0" encoding="UTF-8" standalone="no"?>
<svg width="660px" height="90px" viewBox="0 0 660 90" version="1.1" xmlns="http://www.w3.org/2000/svg" xmlns:xlink="http://www.w3.org/1999/xlink" xmlns:sketch="http://www.bohemiancoding.com/sketch/ns">
    <!-- Generator: Sketch 3.3.3 (12072) - http://www.bohemiancoding.com/sketch -->
    <title>Typography1</title>
    <desc>Created with Sketch.</desc>
    <defs></defs>
    <g id="Page-1" stroke="none" stroke-width="1" fill="none" fill-rule="evenodd" sketch:type="MSPage">
        <g id="Typography1" sketch:type="MSArtboardGroup">
            <g id="SHE---Bebas-Neue,-Bo-+-SHE---Bebas-Neue,-Bo-Copy" sketch:type="MSLayerGroup" transform="translate(11.000000, 18.000000)">
                <path d="M0.745,14.07 C0.745,28.47 16.225,30.414 16.225,40.782 C16.225,44.382 14.641,45.678 12.121,45.678 C9.601,45.678 8.017,44.382 8.017,40.782 L8.017,37.182 L0.529,37.182 L0.529,40.278 C0.529,48.342 4.561,52.95 12.337,52.95 C20.113,52.95 24.145,48.342 24.145,40.278 C24.145,25.878 8.665,23.934 8.665,13.566 C8.665,9.966 10.105,8.598 12.625,8.598 C15.145,8.598 16.585,9.966 16.585,13.566 L16.585,15.654 L24.073,15.654 L24.073,14.07 C24.073,6.006 20.113,1.398 12.409,1.398 C4.705,1.398 0.745,6.006 0.745,14.07 L0.745,14.07 Z M35.801,30.774 L44.801,30.774 L44.801,52.374 L52.865,52.374 L52.865,1.974 L44.801,1.974 L44.801,23.574 L35.801,23.574 L35.801,1.974 L27.881,1.974 L27.881,52.374 L35.801,52.374 L35.801,30.774 Z M65.745,9.174 L79.425,9.174 L79.425,1.974 L57.825,1.974 L57.825,52.374 L79.425,52.374 L79.425,45.174 L65.745,45.174 L65.745,30.414 L76.617,30.414 L76.617,23.214 L65.745,23.214 L65.745,9.174 Z" id="SHE---Bebas-Neue,-Bo" fill="#4ECDC4" sketch:type="MSShapeGroup"></path>
                <path d="M96.129,33.222 L96.129,30.27 L112.977,30.27 L112.977,33.222 L96.129,33.222 Z M148.689,26.022 C150.993011,26.7900038 152.564996,28.2299894 153.405,30.342 C154.245004,32.4540106 154.665,34.9499856 154.665,37.83 C154.665,40.4700132 154.377003,42.7139908 153.801,44.562 C153.224997,46.4100092 152.397005,47.9099942 151.317,49.062 C150.236995,50.2140058 148.941008,51.0539974 147.429,51.582 C145.916992,52.1100026 144.20101,52.374 142.281,52.374 L131.841,52.374 L131.841,2.262 L142.353,2.262 C144.513011,2.262 146.348992,2.53799724 147.861,3.09 C149.373008,3.64200276 150.584995,4.4579946 151.497,5.538 C152.409005,6.6180054 153.068998,7.92599232 153.477,9.462 C153.885002,10.9980077 154.089,12.7499902 154.089,14.718 C154.089,17.310013 153.729004,19.5659904 153.009,21.486 C152.288996,23.4060096 150.849011,24.869995 148.689,25.878 L148.689,26.022 Z M151.641,37.614 C151.641,34.3019834 150.981007,31.746009 149.661,29.946 C148.340993,28.145991 146.241014,27.246 143.361,27.246 L134.937,27.246 L134.937,49.494 L142.353,49.494 C144.225009,49.494 145.772994,49.1700032 146.997,48.522 C148.221006,47.8739968 149.168997,47.0100054 149.841,45.93 C150.513003,44.8499946 150.980999,43.5900072 151.245,42.15 C151.509001,40.7099928 151.641,39.1980079 151.641,37.614 L151.641,37.614 Z M151.065,14.718 C151.065,11.5979844 150.369007,9.21000828 148.977,7.554 C147.584993,5.89799172 145.185017,5.07 141.777,5.07 L134.937,5.07 L134.937,24.582 L143.001,24.582 C146.025015,24.582 148.124994,23.7300085 149.301,22.026 C150.477006,20.3219915 151.065,17.8860158 151.065,14.718 L151.065,14.718 Z M170.145,16.662 C173.025014,16.662 175.268992,17.3939927 176.877,18.858 C178.485008,20.3220073 179.360999,22.4219863 179.505,25.158 C179.553,25.6860026 179.577,26.2019975 179.577,26.706 L179.577,28.254 L179.577,35.238 L163.161,35.238 L163.161,37.542 C163.161,39.0780077 163.197,40.6739917 163.269,42.33 C163.341,43.9860083 163.520999,45.2219959 163.809,46.038 C164.241002,47.2860062 164.936995,48.2699964 165.897,48.99 C166.857005,49.7100036 168.152992,50.07 169.785,50.07 C171.945011,50.07 173.540995,49.4460062 174.573,48.198 C175.605005,46.9499938 176.192999,45.4140091 176.337,43.59 L179.433,44.166 C179.192999,46.9980142 178.209009,49.1579926 176.481,50.646 C174.752991,52.1340074 172.521014,52.878 169.785,52.878 C168.344993,52.878 167.085005,52.6980018 166.005,52.338 C164.924995,51.9779982 164.025004,51.5100029 163.305,50.934 C162.584996,50.3579971 162.009002,49.6980037 161.577,48.954 C161.144998,48.2099963 160.833001,47.4300041 160.641,46.614 C160.496999,46.0379971 160.377,45.2940046 160.281,44.382 C160.184999,43.4699954 160.125,42.4980052 160.101,41.466 C160.077,40.4339948 160.053,39.3660055 160.029,38.262 C160.005,37.1579945 159.993,36.1260048 159.993,35.166 C159.993,33.8699935 160.005,32.5740065 160.029,31.278 C160.053,29.9819935 160.101,28.7580058 160.173,27.606 C160.245,26.4539942 160.352999,25.3980048 160.497,24.438 C160.641001,23.4779952 160.808999,22.7100029 161.001,22.134 C161.625003,20.4539916 162.656993,19.1220049 164.097,18.138 C165.537007,17.1539951 167.552987,16.662 170.145,16.662 L170.145,16.662 Z M163.953,23.286 C163.616998,24.1020041 163.413,25.313992 163.341,26.922 C163.269,28.530008 163.209,30.437989 163.161,32.646 L176.481,32.646 L176.481,28.254 C176.481,27.1499945 176.421001,26.0700053 176.301,25.014 C176.180999,23.9579947 175.893002,23.0220041 175.437,22.206 C174.980998,21.3899959 174.321004,20.7420024 173.457,20.262 C172.592996,19.7819976 171.441007,19.542 170.001,19.542 C168.800994,19.542 167.649005,19.8059974 166.545,20.334 C165.440994,20.8620026 164.577003,21.8459928 163.953,23.286 L163.953,23.286 Z M195.201,49.926 C196.593007,49.926 197.816995,49.6020032 198.873,48.954 C199.929005,48.3059968 200.720997,47.1420084 201.249,45.462 C201.489001,44.6459959 201.645,43.3620088 201.717,41.61 C201.789,39.8579912 201.825,37.8540113 201.825,35.598 C201.825,34.397994 201.813,33.1860061 201.789,31.962 C201.765,30.7379939 201.729,29.5740055 201.681,28.47 C201.633,27.3659945 201.561,26.3820043 201.465,25.518 C201.368999,24.6539957 201.225001,23.9580026 201.033,23.43 C200.600998,22.1339935 199.905005,21.1740031 198.945,20.55 C197.984995,19.9259969 196.809007,19.614 195.417,19.614 C194.216994,19.614 193.161005,19.8659975 192.249,20.37 C191.336995,20.8740025 190.581003,21.5339959 189.981,22.35 C189.380997,23.1660041 188.925002,24.0899948 188.613,25.122 C188.300998,26.1540052 188.145,27.1979947 188.145,28.254 L188.145,42.366 C188.145,44.6220113 188.792993,46.445993 190.089,47.838 C191.385006,49.230007 193.088989,49.926 195.201,49.926 L195.201,49.926 Z M195.993,52.806 C194.02499,52.806 192.453006,52.4820032 191.277,51.834 C190.100994,51.1859968 189.105004,50.262006 188.289,49.062 L188.145,49.062 L188.145,52.374 L185.121,52.374 L185.121,0.102 L188.145,0.102 L188.145,21.27 L188.289,21.27 C189.105004,19.8299928 190.244993,18.7020041 191.709,17.886 C193.173007,17.0699959 194.672992,16.662 196.209,16.662 C198.465011,16.662 200.180994,17.1179954 201.357,18.03 C202.533006,18.9420046 203.408997,20.0699933 203.985,21.414 C204.369002,22.5660058 204.632999,24.0059914 204.777,25.734 C204.921001,27.4620086 204.993,29.2859904 204.993,31.206 L204.993,36.246 C204.993,37.5420065 204.969,38.8739932 204.921,40.242 C204.873,41.6100068 204.777001,43.0379926 204.633,44.526 C204.488999,46.2060084 204.105003,47.5859946 203.481,48.666 C202.856997,49.7460054 202.137004,50.5979969 201.321,51.222 C200.504996,51.8460031 199.617005,52.2659989 198.657,52.482 C197.696995,52.6980011 196.809004,52.806 195.993,52.806 L195.993,52.806 Z M219.537,34.518 C218.480995,34.518 217.497005,34.6619986 216.585,34.95 C215.672995,35.2380014 214.881003,35.7179966 214.209,36.39 C213.536997,37.0620034 213.009002,37.9379946 212.625,39.018 C212.240998,40.0980054 212.049,41.4059923 212.049,42.942 C212.049,44.8620096 212.540995,46.5059932 213.525,47.874 C214.509005,49.2420068 216.224988,49.926 218.673,49.926 C220.73701,49.926 222.440993,49.3620056 223.785,48.234 C225.129007,47.1059944 225.801,45.438011 225.801,43.23 L225.801,34.518 L219.537,34.518 Z M209.961,22.566 C210.633003,20.7419909 211.760992,19.3020053 213.345,18.246 C214.929008,17.1899947 216.968987,16.662 219.465,16.662 C222.489015,16.662 224.816992,17.3459932 226.449,18.714 C228.081008,20.0820068 228.897,22.5179825 228.897,26.022 L228.897,52.374 L225.801,52.374 L225.801,49.206 L225.729,49.206 C224.576994,50.7900079 223.269007,51.785998 221.805,52.194 C220.340993,52.602002 218.913007,52.806 217.521,52.806 C215.936992,52.806 214.605005,52.5300028 213.525,51.978 C212.444995,51.4259972 211.569003,50.6940046 210.897,49.782 C210.224997,48.8699954 209.733002,47.8260059 209.421,46.65 C209.108998,45.4739941 208.953,44.2380065 208.953,42.942 C208.953,41.5979933 209.108998,40.2660066 209.421,38.946 C209.733002,37.6259934 210.272996,36.4260054 211.041,35.346 C211.809004,34.2659946 212.828994,33.3900034 214.101,32.718 C215.373006,32.0459966 216.96899,31.71 218.889,31.71 L225.801,31.71 L225.801,26.094 C225.801,25.1339952 225.705001,24.258004 225.513,23.466 C225.320999,22.673996 224.985002,21.9900029 224.505,21.414 C224.024998,20.8379971 223.365004,20.3820017 222.525,20.046 C221.684996,19.7099983 220.617006,19.542 219.321,19.542 C217.928993,19.542 216.609006,19.8779966 215.361,20.55 C214.112994,21.2220034 213.297002,22.2299933 212.913,23.574 L209.961,22.566 Z M236.889,43.374 C236.889,45.3900101 237.452994,46.997994 238.581,48.198 C239.709006,49.398006 241.28099,49.998 243.297,49.998 C245.841013,49.998 247.592995,49.398006 248.553,48.198 C249.513005,46.997994 249.993,45.3180108 249.993,43.158 C249.993,42.1019947 249.909001,41.2020037 249.741,40.458 C249.572999,39.7139963 249.249002,39.042003 248.769,38.442 C248.288998,37.841997 247.617004,37.2900025 246.753,36.786 C245.888996,36.2819975 244.737007,35.7660026 243.297,35.238 C241.424991,34.5179964 239.889006,33.7980036 238.689,33.078 C237.488994,32.3579964 236.565003,31.602004 235.917,30.81 C235.268997,30.017996 234.825001,29.1900043 234.585,28.326 C234.344999,27.4619957 234.225,26.5500048 234.225,25.59 C234.225,22.9499868 234.992992,20.7900084 236.529,19.11 C238.065008,17.4299916 240.488983,16.59 243.801,16.59 C246.825015,16.59 249.164992,17.3699922 250.821,18.93 C252.477008,20.4900078 253.305,22.7339854 253.305,25.662 L250.065,26.166 C250.065,24.0059892 249.501006,22.3500058 248.373,21.198 C247.244994,20.0459942 245.67301,19.47 243.657,19.47 C242.408994,19.47 241.377004,19.6499982 240.561,20.01 C239.744996,20.3700018 239.109002,20.8379971 238.653,21.414 C238.196998,21.9900029 237.873001,22.6379964 237.681,23.358 C237.488999,24.0780036 237.393,24.8219962 237.393,25.59 C237.393,26.3580038 237.488999,27.0539969 237.681,27.678 C237.873001,28.3020031 238.244997,28.8899972 238.797,29.442 C239.349003,29.9940028 240.128995,30.5339974 241.137,31.062 C242.145005,31.5900026 243.440992,32.1419971 245.025,32.718 C246.849009,33.3900034 248.288995,34.0859964 249.345,34.806 C250.401005,35.5260036 251.204997,36.3059958 251.757,37.146 C252.309003,37.9860042 252.668999,38.8979951 252.837,39.882 C253.005001,40.8660049 253.089,41.9339942 253.089,43.086 C253.089,44.5260072 252.921002,45.845994 252.585,47.046 C252.248998,48.246006 251.697004,49.2779957 250.929,50.142 C250.160996,51.0060043 249.165006,51.6779976 247.941,52.158 C246.716994,52.6380024 245.217009,52.878 243.441,52.878 C240.368985,52.878 238.005008,52.1340074 236.349,50.646 C234.692992,49.1579926 233.817,46.9020151 233.721,43.878 L236.889,43.374 Z M274.113,10.83 L274.113,52.374 L271.089,52.374 L271.089,2.262 L273.969,2.262 C275.793009,6.5820216 277.616991,10.8659788 279.441,15.114 C281.265009,19.3620212 283.088991,23.6459784 284.913,27.966 L291.609,43.95 L291.897,43.95 L291.897,2.262 L294.921,2.262 L294.921,52.374 L291.969,52.374 C290.144991,48.1019786 288.333009,43.8420212 286.533,39.594 C284.732991,35.3459788 282.921009,31.0860214 281.097,26.814 C279.944994,24.1259866 278.805006,21.4620132 277.677,18.822 C276.548994,16.1819868 275.433005,13.5180134 274.329,10.83 L274.113,10.83 Z M311.049,16.662 C313.929014,16.662 316.172992,17.3939927 317.781,18.858 C319.389008,20.3220073 320.264999,22.4219863 320.409,25.158 C320.457,25.6860026 320.481,26.2019975 320.481,26.706 L320.481,28.254 L320.481,35.238 L304.065,35.238 L304.065,37.542 C304.065,39.0780077 304.101,40.6739917 304.173,42.33 C304.245,43.9860083 304.424999,45.2219959 304.713,46.038 C305.145002,47.2860062 305.840995,48.2699964 306.801,48.99 C307.761005,49.7100036 309.056992,50.07 310.689,50.07 C312.849011,50.07 314.444995,49.4460062 315.477,48.198 C316.509005,46.9499938 317.096999,45.4140091 317.241,43.59 L320.337,44.166 C320.096999,46.9980142 319.113009,49.1579926 317.385,50.646 C315.656991,52.1340074 313.425014,52.878 310.689,52.878 C309.248993,52.878 307.989005,52.6980018 306.909,52.338 C305.828995,51.9779982 304.929004,51.5100029 304.209,50.934 C303.488996,50.3579971 302.913002,49.6980037 302.481,48.954 C302.048998,48.2099963 301.737001,47.4300041 301.545,46.614 C301.400999,46.0379971 301.281,45.2940046 301.185,44.382 C301.088999,43.4699954 301.029,42.4980052 301.005,41.466 C300.981,40.4339948 300.957,39.3660055 300.933,38.262 C300.909,37.1579945 300.897,36.1260048 300.897,35.166 C300.897,33.8699935 300.909,32.5740065 300.933,31.278 C300.957,29.9819935 301.005,28.7580058 301.077,27.606 C301.149,26.4539942 301.256999,25.3980048 301.401,24.438 C301.545001,23.4779952 301.712999,22.7100029 301.905,22.134 C302.529003,20.4539916 303.560993,19.1220049 305.001,18.138 C306.441007,17.1539951 308.456987,16.662 311.049,16.662 L311.049,16.662 Z M304.857,23.286 C304.520998,24.1020041 304.317,25.313992 304.245,26.922 C304.173,28.530008 304.113,30.437989 304.065,32.646 L317.385,32.646 L317.385,28.254 C317.385,27.1499945 317.325001,26.0700053 317.205,25.014 C317.084999,23.9579947 316.797002,23.0220041 316.341,22.206 C315.884998,21.3899959 315.225004,20.7420024 314.361,20.262 C313.496996,19.7819976 312.345007,19.542 310.905,19.542 C309.704994,19.542 308.553005,19.8059974 307.449,20.334 C306.344994,20.8620026 305.481003,21.8459928 304.857,23.286 L304.857,23.286 Z M342.801,48.414 L342.585,48.414 C341.768996,49.806007 340.689007,50.897996 339.345,51.69 C338.000993,52.482004 336.489008,52.878 334.809,52.878 C333.176992,52.878 331.809005,52.6260025 330.705,52.122 C329.600994,51.6179975 328.725003,50.9340043 328.077,50.07 C327.428997,49.2059957 326.961001,48.1980058 326.673,47.046 C326.384999,45.8939942 326.241,44.6700065 326.241,43.374 L326.241,17.094 L329.409,17.094 L329.409,42.366 C329.409,43.4700055 329.504999,44.4779954 329.697,45.39 C329.889001,46.3020046 330.212998,47.0819968 330.669,47.73 C331.125002,48.3780032 331.760996,48.8939981 332.577,49.278 C333.393004,49.6620019 334.424994,49.854 335.673,49.854 C336.777005,49.854 337.772996,49.6260023 338.661,49.17 C339.549004,48.7139977 340.292997,48.1140037 340.893,47.37 C341.493003,46.6259963 341.960998,45.7740048 342.297,44.814 C342.633002,43.8539952 342.801,42.870005 342.801,41.862 L342.801,17.094 L345.897,17.094 L345.897,52.374 L342.801,52.374 L342.801,48.414 Z M361.449,16.662 C364.329014,16.662 366.572992,17.3939927 368.181,18.858 C369.789008,20.3220073 370.664999,22.4219863 370.809,25.158 C370.857,25.6860026 370.881,26.2019975 370.881,26.706 L370.881,28.254 L370.881,35.238 L354.465,35.238 L354.465,37.542 C354.465,39.0780077 354.501,40.6739917 354.573,42.33 C354.645,43.9860083 354.824999,45.2219959 355.113,46.038 C355.545002,47.2860062 356.240995,48.2699964 357.201,48.99 C358.161005,49.7100036 359.456992,50.07 361.089,50.07 C363.249011,50.07 364.844995,49.4460062 365.877,48.198 C366.909005,46.9499938 367.496999,45.4140091 367.641,43.59 L370.737,44.166 C370.496999,46.9980142 369.513009,49.1579926 367.785,50.646 C366.056991,52.1340074 363.825014,52.878 361.089,52.878 C359.648993,52.878 358.389005,52.6980018 357.309,52.338 C356.228995,51.9779982 355.329004,51.5100029 354.609,50.934 C353.888996,50.3579971 353.313002,49.6980037 352.881,48.954 C352.448998,48.2099963 352.137001,47.4300041 351.945,46.614 C351.800999,46.0379971 351.681,45.2940046 351.585,44.382 C351.488999,43.4699954 351.429,42.4980052 351.405,41.466 C351.381,40.4339948 351.357,39.3660055 351.333,38.262 C351.309,37.1579945 351.297,36.1260048 351.297,35.166 C351.297,33.8699935 351.309,32.5740065 351.333,31.278 C351.357,29.9819935 351.405,28.7580058 351.477,27.606 C351.549,26.4539942 351.656999,25.3980048 351.801,24.438 C351.945001,23.4779952 352.112999,22.7100029 352.305,22.134 C352.929003,20.4539916 353.960993,19.1220049 355.401,18.138 C356.841007,17.1539951 358.856987,16.662 361.449,16.662 L361.449,16.662 Z M355.257,23.286 C354.920998,24.1020041 354.717,25.313992 354.645,26.922 C354.573,28.530008 354.513,30.437989 354.465,32.646 L367.785,32.646 L367.785,28.254 C367.785,27.1499945 367.725001,26.0700053 367.605,25.014 C367.484999,23.9579947 367.197002,23.0220041 366.741,22.206 C366.284998,21.3899959 365.625004,20.7420024 364.761,20.262 C363.896996,19.7819976 362.745007,19.542 361.305,19.542 C360.104994,19.542 358.953005,19.8059974 357.849,20.334 C356.744994,20.8620026 355.881003,21.8459928 355.257,23.286 L355.257,23.286 Z M378.009,59.142 L376.137,59.142 L377.505,52.518 L376.569,52.518 L376.569,48.558 L380.385,48.558 L380.385,52.446 L378.009,59.142 Z M416.241,26.022 C418.545011,26.7900038 420.116996,28.2299894 420.957,30.342 C421.797004,32.4540106 422.217,34.9499856 422.217,37.83 C422.217,40.4700132 421.929003,42.7139908 421.353,44.562 C420.776997,46.4100092 419.949005,47.9099942 418.869,49.062 C417.788995,50.2140058 416.493008,51.0539974 414.981,51.582 C413.468992,52.1100026 411.75301,52.374 409.833,52.374 L399.393,52.374 L399.393,2.262 L409.905,2.262 C412.065011,2.262 413.900992,2.53799724 415.413,3.09 C416.925008,3.64200276 418.136995,4.4579946 419.049,5.538 C419.961005,6.6180054 420.620998,7.92599232 421.029,9.462 C421.437002,10.9980077 421.641,12.7499902 421.641,14.718 C421.641,17.310013 421.281004,19.5659904 420.561,21.486 C419.840996,23.4060096 418.401011,24.869995 416.241,25.878 L416.241,26.022 Z M419.193,37.614 C419.193,34.3019834 418.533007,31.746009 417.213,29.946 C415.892993,28.145991 413.793014,27.246 410.913,27.246 L402.489,27.246 L402.489,49.494 L409.905,49.494 C411.777009,49.494 413.324994,49.1700032 414.549,48.522 C415.773006,47.8739968 416.720997,47.0100054 417.393,45.93 C418.065003,44.8499946 418.532999,43.5900072 418.797,42.15 C419.061001,40.7099928 419.193,39.1980079 419.193,37.614 L419.193,37.614 Z M418.617,14.718 C418.617,11.5979844 417.921007,9.21000828 416.529,7.554 C415.136993,5.89799172 412.737017,5.07 409.329,5.07 L402.489,5.07 L402.489,24.582 L410.553,24.582 C413.577015,24.582 415.676994,23.7300085 416.853,22.026 C418.029006,20.3219915 418.617,17.8860158 418.617,14.718 L418.617,14.718 Z M437.841,16.662 C440.481013,16.662 442.496993,17.165995 443.889,18.174 C445.281007,19.182005 446.240997,20.4539923 446.769,21.99 C447.009001,22.6140031 447.188999,23.4419948 447.309,24.474 C447.429001,25.5060052 447.525,26.6339939 447.597,27.858 C447.669,29.0820061 447.705,30.3299936 447.705,31.602 L447.705,35.166 L447.705,36.246 C447.705,37.4940062 447.693,38.7659935 447.669,40.062 C447.645,41.3580065 447.561001,42.7739923 447.417,44.31 C447.272999,45.9900084 446.877003,47.3819945 446.229,48.486 C445.580997,49.5900055 444.789005,50.4659968 443.853,51.114 C442.916995,51.7620032 441.897005,52.2179987 440.793,52.482 C439.688994,52.7460013 438.609005,52.878 437.553,52.878 C434.672986,52.878 432.525007,52.2900059 431.109,51.114 C429.692993,49.9379941 428.721003,48.4380091 428.193,46.614 C428.048999,46.0379971 427.929,45.3060044 427.833,44.418 C427.736999,43.5299956 427.665,42.5580053 427.617,41.502 C427.569,40.4459947 427.545,39.3660055 427.545,38.262 L427.545,35.166 C427.545,33.8699935 427.557,32.5860064 427.581,31.314 C427.605,30.0419936 427.653,28.8300058 427.725,27.678 C427.797,26.5259942 427.904999,25.4820047 428.049,24.546 C428.193001,23.6099953 428.360999,22.8540029 428.553,22.278 C429.177003,20.5979916 430.232993,19.2420052 431.721,18.21 C433.209007,17.1779948 435.248987,16.662 437.841,16.662 L437.841,16.662 Z M437.769,19.47 C436.520994,19.47 435.321006,19.7219975 434.169,20.226 C433.016994,20.7300025 432.153003,21.7019928 431.577,23.142 C431.192998,24.1020048 430.953,25.6019898 430.857,27.642 C430.760999,29.6820102 430.713,32.0459866 430.713,34.734 L430.713,36.534 C430.713,38.8380115 430.749,40.7819921 430.821,42.366 C430.893,43.9500079 431.072999,45.1739957 431.361,46.038 C431.793002,47.3340065 432.524995,48.3299965 433.557,49.026 C434.589005,49.7220035 435.992991,50.07 437.769,50.07 C439.353008,50.07 440.720994,49.6380043 441.873,48.774 C443.025006,47.9099957 443.792998,46.7100077 444.177,45.174 C444.369001,44.3579959 444.501,43.0620089 444.573,41.286 C444.645,39.5099911 444.681,37.6140101 444.681,35.598 C444.681,34.5419947 444.669,33.414006 444.645,32.214 C444.621,31.013994 444.597,29.8620055 444.573,28.758 C444.549,27.6539945 444.489,26.6580044 444.393,25.77 C444.296999,24.8819956 444.177001,24.1980024 444.033,23.718 C443.600998,22.2779928 442.821006,21.2100035 441.693,20.514 C440.564994,19.8179965 439.257007,19.47 437.769,19.47 L437.769,19.47 Z M453.825,0.102 L456.849,0.102 L456.849,44.094 C456.849,45.9180091 457.148997,47.3699946 457.749,48.45 C458.349003,49.5300054 459.560991,50.07 461.385,50.07 L462.249,50.07 L462.249,52.878 L461.169,52.878 C458.768988,52.878 456.945006,52.3020058 455.697,51.15 C454.448994,49.9979942 453.825,47.8860154 453.825,44.814 L453.825,0.102 Z M474.417,49.926 C476.577011,49.926 478.292994,49.230007 479.565,47.838 C480.837006,46.445993 481.473,44.6220113 481.473,42.366 L481.473,27.822 C481.473,26.7659947 481.329001,25.7460049 481.041,24.762 C480.752999,23.7779951 480.321003,22.9140037 479.745,22.17 C479.168997,21.4259963 478.449004,20.8260023 477.585,20.37 C476.720996,19.9139977 475.713006,19.686 474.561,19.686 C473.120993,19.686 471.861005,20.0699962 470.781,20.838 C469.700995,21.6060038 468.969002,22.7339926 468.585,24.222 C468.440999,24.7500026 468.321,25.4219959 468.225,26.238 C468.128999,27.0540041 468.069,27.9779948 468.045,29.01 C468.021,30.0420052 467.997,31.1219944 467.973,32.25 C467.949,33.3780056 467.937,34.4939945 467.937,35.598 C467.937,37.8540113 467.973,39.8579912 468.045,41.61 C468.117,43.3620088 468.272999,44.6459959 468.513,45.462 C468.993002,47.1420084 469.724995,48.3059968 470.709,48.954 C471.693005,49.6020032 472.928993,49.926 474.417,49.926 L474.417,49.926 Z M473.697,52.806 C472.784995,52.806 471.861005,52.6980011 470.925,52.482 C469.988995,52.2659989 469.101004,51.8460031 468.261,51.222 C467.420996,50.5979969 466.713003,49.7460054 466.137,48.666 C465.560997,47.5859946 465.177001,46.2060084 464.985,44.526 C464.840999,42.9899923 464.769,41.5020072 464.769,40.062 L464.769,35.958 L464.769,34.95 C464.769,32.2139863 464.805,29.7300112 464.877,27.498 C464.949,25.2659888 465.248997,23.454007 465.777,22.062 C466.305003,20.5739926 467.204994,19.3020053 468.477,18.246 C469.749006,17.1899947 471.632987,16.662 474.129,16.662 C476.04901,16.662 477.632994,17.1179954 478.881,18.03 C480.129006,18.9420046 480.944998,19.8299957 481.329,20.694 L481.473,20.694 L481.473,0.102 L484.569,0.102 L484.569,52.374 L481.473,52.374 L481.473,49.062 L481.329,49.062 C480.512996,50.262006 479.517006,51.1859968 478.341,51.834 C477.164994,52.4820032 475.61701,52.806 473.697,52.806 L473.697,52.806 Z M508.689,52.374 L505.665,52.374 L519.129,4.998 L505.665,4.998 L505.665,11.19 L502.929,11.19 L502.929,2.262 L522.225,2.262 L522.225,4.854 L508.689,52.374 Z M538.065,4.71 C536.384992,4.71 534.909006,5.33399376 533.637,6.582 C532.364994,7.83000624 531.729,9.94198512 531.729,12.918 L528.705,12.414 C528.801,8.86198224 529.676992,6.21000876 531.333,4.458 C532.989008,2.70599124 535.280985,1.83 538.209,1.83 C541.569017,1.83 543.980993,2.80199028 545.445,4.746 C546.909007,6.69000972 547.641,9.24598416 547.641,12.414 C547.641,14.7180115 547.425002,16.7099916 546.993,18.39 C546.560998,20.0700084 545.889005,21.7979911 544.977,23.574 L532.089,49.494 L547.209,49.494 L547.209,52.374 L528.705,52.374 L528.705,49.494 L542.529,21.702 C543.297004,20.1659923 543.800999,18.6540074 544.041,17.166 C544.281001,15.6779926 544.401,14.0940084 544.401,12.414 C544.401,11.4539952 544.317001,10.5060047 544.149,9.57 C543.980999,8.63399532 543.669002,7.8060036 543.213,7.086 C542.756998,6.3659964 542.121004,5.79000216 541.305,5.358 C540.488996,4.92599784 539.409007,4.71 538.065,4.71 L538.065,4.71 Z M563.481,19.686 C561.320989,19.686 559.593006,20.381993 558.297,21.774 C557.000993,23.166007 556.353,24.9899887 556.353,27.246 L556.353,41.79 C556.353,42.8460053 556.496999,43.8659951 556.785,44.85 C557.073001,45.8340049 557.504997,46.6979963 558.081,47.442 C558.657003,48.1860037 559.376996,48.7859977 560.241,49.242 C561.105004,49.6980023 562.112994,49.926 563.265,49.926 C564.705007,49.926 565.976994,49.5420038 567.081,48.774 C568.185005,48.0059962 568.928998,46.8780074 569.313,45.39 C569.457001,44.9099976 569.565,44.2500042 569.637,43.41 C569.709,42.5699958 569.769,41.6340052 569.817,40.602 C569.865,39.5699948 569.889,38.4900056 569.889,37.362 L569.889,34.014 C569.889,31.7579887 569.853,29.7540088 569.781,28.002 C569.709,26.2499912 569.553001,24.9660041 569.313,24.15 C568.832998,22.4699916 568.113005,21.3060032 567.153,20.658 C566.192995,20.0099968 564.969007,19.686 563.481,19.686 L563.481,19.686 Z M564.201,16.734 C565.065004,16.734 565.976995,16.8539988 566.937,17.094 C567.897005,17.3340012 568.784996,17.7659969 569.601,18.39 C570.417004,19.0140031 571.124997,19.8659946 571.725,20.946 C572.325003,22.0260054 572.696999,23.4059916 572.841,25.086 C572.985001,26.6220077 573.069,28.0979929 573.093,29.514 C573.117,30.9300071 573.129,32.3099933 573.129,33.654 L573.129,34.662 C573.129,37.3980137 573.081,39.8459892 572.985,42.006 C572.888999,44.1660108 572.577003,46.0139923 572.049,47.55 C571.520997,49.0380074 570.621006,50.2979948 569.349,51.33 C568.076994,52.3620052 566.193012,52.878 563.697,52.878 C561.77699,52.878 560.193006,52.4340044 558.945,51.546 C557.696994,50.6579956 556.881002,49.7820043 556.497,48.918 L556.353,48.918 L556.353,66.342 L553.329,66.342 L553.329,17.238 L556.353,17.238 L556.353,20.55 L556.497,20.55 C557.313004,19.349994 558.308994,18.4140034 559.485,17.742 C560.661006,17.0699966 562.23299,16.734 564.201,16.734 L564.201,16.734 Z M577.089,17.166 L581.121,17.166 L581.121,7.518 L584.217,7.518 L584.217,17.166 L589.545,17.166 L589.545,19.686 L584.217,19.686 L584.217,44.094 C584.217,45.8700089 584.588996,47.2259953 585.333,48.162 C586.077004,49.0980047 587.336991,49.566 589.113,49.566 L589.905,49.566 L589.905,52.374 L588.537,52.374 C583.592975,52.374 581.121,49.7340264 581.121,44.454 L581.121,19.686 L577.089,19.686 L577.089,17.166 Z" id="SHE---Bebas-Neue,-Bo-Copy" fill="#000000" sketch:type="MSShapeGroup"></path>
            </g>
        </g>
    </g>
</svg>