<?xml version="1.0" encoding="UTF-8" standalone="no"?>
<svg width="680px" height="90px" viewBox="0 0 680 90" version="1.1" xmlns="http://www.w3.org/2000/svg" xmlns:xlink="http://www.w3.org/1999/xlink" xmlns:sketch="http://www.bohemiancoding.com/sketch/ns">
    <!-- Generator: Sketch 3.3.3 (12072) - http://www.bohemiancoding.com/sketch -->
    <title>Typography2</title>
    <desc>Created with Sketch.</desc>
    <defs></defs>
    <g id="Page-1" stroke="none" stroke-width="1" fill="none" fill-rule="evenodd" sketch:type="MSPage">
        <g id="Typography2" sketch:type="MSArtboardGroup">
            <g id="SHARP-+-SHARP" sketch:type="MSLayerGroup" transform="translate(10.000000, 18.000000)">
                <path d="M142.945,33.222 L142.945,30.27 L159.793,30.27 L159.793,33.222 L142.945,33.222 Z M195.505,26.022 C197.809012,26.7900038 199.380996,28.2299894 200.221,30.342 C201.061004,32.4540106 201.481,34.9499856 201.481,37.83 C201.481,40.4700132 201.193003,42.7139908 200.617,44.562 C200.040997,46.4100092 199.213006,47.9099942 198.133,49.062 C197.052995,50.2140058 195.757008,51.0539974 194.245,51.582 C192.732993,52.1100026 191.01701,52.374 189.097,52.374 L178.657,52.374 L178.657,2.262 L189.169,2.262 C191.329011,2.262 193.164993,2.53799724 194.677,3.09 C196.189008,3.64200276 197.400996,4.4579946 198.313,5.538 C199.225005,6.6180054 199.884998,7.92599232 200.293,9.462 C200.701002,10.9980077 200.905,12.7499902 200.905,14.718 C200.905,17.310013 200.545004,19.5659904 199.825,21.486 C199.104997,23.4060096 197.665011,24.869995 195.505,25.878 L195.505,26.022 Z M198.457,37.614 C198.457,34.3019834 197.797007,31.746009 196.477,29.946 C195.156994,28.145991 193.057015,27.246 190.177,27.246 L181.753,27.246 L181.753,49.494 L189.169,49.494 C191.04101,49.494 192.588994,49.1700032 193.813,48.522 C195.037006,47.8739968 195.984997,47.0100054 196.657,45.93 C197.329004,44.8499946 197.796999,43.5900072 198.061,42.15 C198.325001,40.7099928 198.457,39.1980079 198.457,37.614 L198.457,37.614 Z M197.881,14.718 C197.881,11.5979844 197.185007,9.21000828 195.793,7.554 C194.400993,5.89799172 192.001017,5.07 188.593,5.07 L181.753,5.07 L181.753,24.582 L189.817,24.582 C192.841015,24.582 194.940994,23.7300085 196.117,22.026 C197.293006,20.3219915 197.881,17.8860158 197.881,14.718 L197.881,14.718 Z M216.961,16.662 C219.841015,16.662 222.084992,17.3939927 223.693,18.858 C225.301008,20.3220073 226.176999,22.4219863 226.321,25.158 C226.369,25.6860026 226.393,26.2019975 226.393,26.706 L226.393,28.254 L226.393,35.238 L209.977,35.238 L209.977,37.542 C209.977,39.0780077 210.013,40.6739917 210.085,42.33 C210.157001,43.9860083 210.336999,45.2219959 210.625,46.038 C211.057002,47.2860062 211.752995,48.2699964 212.713,48.99 C213.673005,49.7100036 214.968992,50.07 216.601,50.07 C218.761011,50.07 220.356995,49.4460062 221.389,48.198 C222.421005,46.9499938 223.008999,45.4140091 223.153,43.59 L226.249,44.166 C226.008999,46.9980142 225.025009,49.1579926 223.297,50.646 C221.568992,52.1340074 219.337014,52.878 216.601,52.878 C215.160993,52.878 213.901006,52.6980018 212.821,52.338 C211.740995,51.9779982 210.841004,51.5100029 210.121,50.934 C209.400997,50.3579971 208.825002,49.6980037 208.393,48.954 C207.960998,48.2099963 207.649001,47.4300041 207.457,46.614 C207.312999,46.0379971 207.193001,45.2940046 207.097,44.382 C207.001,43.4699954 206.941,42.4980052 206.917,41.466 C206.893,40.4339948 206.869,39.3660055 206.845,38.262 C206.821,37.1579945 206.809,36.1260048 206.809,35.166 C206.809,33.8699935 206.821,32.5740065 206.845,31.278 C206.869,29.9819935 206.917,28.7580058 206.989,27.606 C207.061001,26.4539942 207.168999,25.3980048 207.313,24.438 C207.457001,23.4779952 207.624999,22.7100029 207.817,22.134 C208.441003,20.4539916 209.472993,19.1220049 210.913,18.138 C212.353007,17.1539951 214.368987,16.662 216.961,16.662 L216.961,16.662 Z M210.769,23.286 C210.432998,24.1020041 210.229001,25.313992 210.157,26.922 C210.085,28.530008 210.025,30.437989 209.977,32.646 L223.297,32.646 L223.297,28.254 C223.297,27.1499945 223.237001,26.0700053 223.117,25.014 C222.997,23.9579947 222.709002,23.0220041 222.253,22.206 C221.796998,21.3899959 221.137004,20.7420024 220.273,20.262 C219.408996,19.7819976 218.257007,19.542 216.817,19.542 C215.616994,19.542 214.465006,19.8059974 213.361,20.334 C212.256995,20.8620026 211.393003,21.8459928 210.769,23.286 L210.769,23.286 Z M242.017,49.926 C243.409007,49.926 244.632995,49.6020032 245.689,48.954 C246.745005,48.3059968 247.536998,47.1420084 248.065,45.462 C248.305001,44.6459959 248.461,43.3620088 248.533,41.61 C248.605001,39.8579912 248.641,37.8540113 248.641,35.598 C248.641,34.397994 248.629,33.1860061 248.605,31.962 C248.581,30.7379939 248.545,29.5740055 248.497,28.47 C248.449,27.3659945 248.377001,26.3820043 248.281,25.518 C248.185,24.6539957 248.041001,23.9580026 247.849,23.43 C247.416998,22.1339935 246.721005,21.1740031 245.761,20.55 C244.800995,19.9259969 243.625007,19.614 242.233,19.614 C241.032994,19.614 239.977005,19.8659975 239.065,20.37 C238.152996,20.8740025 237.397003,21.5339959 236.797,22.35 C236.196997,23.1660041 235.741002,24.0899948 235.429,25.122 C235.116999,26.1540052 234.961,27.1979947 234.961,28.254 L234.961,42.366 C234.961,44.6220113 235.608994,46.445993 236.905,47.838 C238.201007,49.230007 239.90499,49.926 242.017,49.926 L242.017,49.926 Z M242.809,52.806 C240.84099,52.806 239.269006,52.4820032 238.093,51.834 C236.916994,51.1859968 235.921004,50.262006 235.105,49.062 L234.961,49.062 L234.961,52.374 L231.937,52.374 L231.937,0.102 L234.961,0.102 L234.961,21.27 L235.105,21.27 C235.921004,19.8299928 237.060993,18.7020041 238.525,17.886 C239.989007,17.0699959 241.488992,16.662 243.025,16.662 C245.281011,16.662 246.996994,17.1179954 248.173,18.03 C249.349006,18.9420046 250.224997,20.0699933 250.801,21.414 C251.185002,22.5660058 251.448999,24.0059914 251.593,25.734 C251.737001,27.4620086 251.809,29.2859904 251.809,31.206 L251.809,36.246 C251.809,37.5420065 251.785,38.8739932 251.737,40.242 C251.689,41.6100068 251.593001,43.0379926 251.449,44.526 C251.304999,46.2060084 250.921003,47.5859946 250.297,48.666 C249.672997,49.7460054 248.953004,50.5979969 248.137,51.222 C247.320996,51.8460031 246.433005,52.2659989 245.473,52.482 C244.512995,52.6980011 243.625004,52.806 242.809,52.806 L242.809,52.806 Z M266.353,34.518 C265.296995,34.518 264.313005,34.6619986 263.401,34.95 C262.488996,35.2380014 261.697004,35.7179966 261.025,36.39 C260.352997,37.0620034 259.825002,37.9379946 259.441,39.018 C259.056998,40.0980054 258.865,41.4059923 258.865,42.942 C258.865,44.8620096 259.356995,46.5059932 260.341,47.874 C261.325005,49.2420068 263.040988,49.926 265.489,49.926 C267.55301,49.926 269.256993,49.3620056 270.601,48.234 C271.945007,47.1059944 272.617,45.438011 272.617,43.23 L272.617,34.518 L266.353,34.518 Z M256.777,22.566 C257.449004,20.7419909 258.576992,19.3020053 260.161,18.246 C261.745008,17.1899947 263.784988,16.662 266.281,16.662 C269.305015,16.662 271.632992,17.3459932 273.265,18.714 C274.897008,20.0820068 275.713,22.5179825 275.713,26.022 L275.713,52.374 L272.617,52.374 L272.617,49.206 L272.545,49.206 C271.392994,50.7900079 270.085007,51.785998 268.621,52.194 C267.156993,52.602002 265.729007,52.806 264.337,52.806 C262.752992,52.806 261.421006,52.5300028 260.341,51.978 C259.260995,51.4259972 258.385004,50.6940046 257.713,49.782 C257.040997,48.8699954 256.549002,47.8260059 256.237,46.65 C255.924999,45.4739941 255.769,44.2380065 255.769,42.942 C255.769,41.5979933 255.924999,40.2660066 256.237,38.946 C256.549002,37.6259934 257.088996,36.4260054 257.857,35.346 C258.625004,34.2659946 259.644994,33.3900034 260.917,32.718 C262.189007,32.0459966 263.784991,31.71 265.705,31.71 L272.617,31.71 L272.617,26.094 C272.617,25.1339952 272.521001,24.258004 272.329,23.466 C272.136999,22.673996 271.801003,21.9900029 271.321,21.414 C270.840998,20.8379971 270.181004,20.3820017 269.341,20.046 C268.500996,19.7099983 267.433007,19.542 266.137,19.542 C264.744993,19.542 263.425006,19.8779966 262.177,20.55 C260.928994,21.2220034 260.113002,22.2299933 259.729,23.574 L256.777,22.566 Z M283.705,43.374 C283.705,45.3900101 284.268995,46.997994 285.397,48.198 C286.525006,49.398006 288.09699,49.998 290.113,49.998 C292.657013,49.998 294.408995,49.398006 295.369,48.198 C296.329005,46.997994 296.809,45.3180108 296.809,43.158 C296.809,42.1019947 296.725001,41.2020037 296.557,40.458 C296.388999,39.7139963 296.065003,39.042003 295.585,38.442 C295.104998,37.841997 294.433004,37.2900025 293.569,36.786 C292.704996,36.2819975 291.553007,35.7660026 290.113,35.238 C288.240991,34.5179964 286.705006,33.7980036 285.505,33.078 C284.304994,32.3579964 283.381003,31.602004 282.733,30.81 C282.084997,30.017996 281.641001,29.1900043 281.401,28.326 C281.160999,27.4619957 281.041,26.5500048 281.041,25.59 C281.041,22.9499868 281.808992,20.7900084 283.345,19.11 C284.881008,17.4299916 287.304984,16.59 290.617,16.59 C293.641015,16.59 295.980992,17.3699922 297.637,18.93 C299.293008,20.4900078 300.121,22.7339854 300.121,25.662 L296.881,26.166 C296.881,24.0059892 296.317006,22.3500058 295.189,21.198 C294.060995,20.0459942 292.48901,19.47 290.473,19.47 C289.224994,19.47 288.193004,19.6499982 287.377,20.01 C286.560996,20.3700018 285.925002,20.8379971 285.469,21.414 C285.012998,21.9900029 284.689001,22.6379964 284.497,23.358 C284.304999,24.0780036 284.209,24.8219962 284.209,25.59 C284.209,26.3580038 284.304999,27.0539969 284.497,27.678 C284.689001,28.3020031 285.060997,28.8899972 285.613,29.442 C286.165003,29.9940028 286.944995,30.5339974 287.953,31.062 C288.961005,31.5900026 290.256992,32.1419971 291.841,32.718 C293.665009,33.3900034 295.104995,34.0859964 296.161,34.806 C297.217005,35.5260036 298.020997,36.3059958 298.573,37.146 C299.125003,37.9860042 299.484999,38.8979951 299.653,39.882 C299.821001,40.8660049 299.905,41.9339942 299.905,43.086 C299.905,44.5260072 299.737002,45.845994 299.401,47.046 C299.064998,48.246006 298.513004,49.2779957 297.745,50.142 C296.976996,51.0060043 295.981006,51.6779976 294.757,52.158 C293.532994,52.6380024 292.033009,52.878 290.257,52.878 C287.184985,52.878 284.821008,52.1340074 283.165,50.646 C281.508992,49.1579926 280.633001,46.9020151 280.537,43.878 L283.705,43.374 Z M320.929,10.83 L320.929,52.374 L317.905,52.374 L317.905,2.262 L320.785,2.262 C322.609009,6.5820216 324.432991,10.8659788 326.257,15.114 C328.081009,19.3620212 329.904991,23.6459784 331.729,27.966 L338.425,43.95 L338.713,43.95 L338.713,2.262 L341.737,2.262 L341.737,52.374 L338.785,52.374 C336.960991,48.1019786 335.149009,43.8420212 333.349,39.594 C331.548991,35.3459788 329.737009,31.0860214 327.913,26.814 C326.760994,24.1259866 325.621006,21.4620132 324.493,18.822 C323.364995,16.1819868 322.249006,13.5180134 321.145,10.83 L320.929,10.83 Z M357.865,16.662 C360.745015,16.662 362.988992,17.3939927 364.597,18.858 C366.205008,20.3220073 367.080999,22.4219863 367.225,25.158 C367.273,25.6860026 367.297,26.2019975 367.297,26.706 L367.297,28.254 L367.297,35.238 L350.881,35.238 L350.881,37.542 C350.881,39.0780077 350.917,40.6739917 350.989,42.33 C351.061001,43.9860083 351.240999,45.2219959 351.529,46.038 C351.961002,47.2860062 352.656995,48.2699964 353.617,48.99 C354.577005,49.7100036 355.872992,50.07 357.505,50.07 C359.665011,50.07 361.260995,49.4460062 362.293,48.198 C363.325005,46.9499938 363.912999,45.4140091 364.057,43.59 L367.153,44.166 C366.912999,46.9980142 365.929009,49.1579926 364.201,50.646 C362.472992,52.1340074 360.241014,52.878 357.505,52.878 C356.064993,52.878 354.805006,52.6980018 353.725,52.338 C352.644995,51.9779982 351.745004,51.5100029 351.025,50.934 C350.304997,50.3579971 349.729002,49.6980037 349.297,48.954 C348.864998,48.2099963 348.553001,47.4300041 348.361,46.614 C348.216999,46.0379971 348.097001,45.2940046 348.001,44.382 C347.905,43.4699954 347.845,42.4980052 347.821,41.466 C347.797,40.4339948 347.773,39.3660055 347.749,38.262 C347.725,37.1579945 347.713,36.1260048 347.713,35.166 C347.713,33.8699935 347.725,32.5740065 347.749,31.278 C347.773,29.9819935 347.821,28.7580058 347.893,27.606 C347.965001,26.4539942 348.072999,25.3980048 348.217,24.438 C348.361001,23.4779952 348.528999,22.7100029 348.721,22.134 C349.345003,20.4539916 350.376993,19.1220049 351.817,18.138 C353.257007,17.1539951 355.272987,16.662 357.865,16.662 L357.865,16.662 Z M351.673,23.286 C351.336998,24.1020041 351.133001,25.313992 351.061,26.922 C350.989,28.530008 350.929,30.437989 350.881,32.646 L364.201,32.646 L364.201,28.254 C364.201,27.1499945 364.141001,26.0700053 364.021,25.014 C363.901,23.9579947 363.613002,23.0220041 363.157,22.206 C362.700998,21.3899959 362.041004,20.7420024 361.177,20.262 C360.312996,19.7819976 359.161007,19.542 357.721,19.542 C356.520994,19.542 355.369006,19.8059974 354.265,20.334 C353.160995,20.8620026 352.297003,21.8459928 351.673,23.286 L351.673,23.286 Z M389.617,48.414 L389.401,48.414 C388.584996,49.806007 387.505007,50.897996 386.161,51.69 C384.816993,52.482004 383.305009,52.878 381.625,52.878 C379.992992,52.878 378.625006,52.6260025 377.521,52.122 C376.416995,51.6179975 375.541003,50.9340043 374.893,50.07 C374.244997,49.2059957 373.777002,48.1980058 373.489,47.046 C373.200999,45.8939942 373.057,44.6700065 373.057,43.374 L373.057,17.094 L376.225,17.094 L376.225,42.366 C376.225,43.4700055 376.320999,44.4779954 376.513,45.39 C376.705001,46.3020046 377.028998,47.0819968 377.485,47.73 C377.941002,48.3780032 378.576996,48.8939981 379.393,49.278 C380.209004,49.6620019 381.240994,49.854 382.489,49.854 C383.593006,49.854 384.588996,49.6260023 385.477,49.17 C386.365005,48.7139977 387.108997,48.1140037 387.709,47.37 C388.309003,46.6259963 388.776998,45.7740048 389.113,44.814 C389.449002,43.8539952 389.617,42.870005 389.617,41.862 L389.617,17.094 L392.713,17.094 L392.713,52.374 L389.617,52.374 L389.617,48.414 Z M408.265,16.662 C411.145015,16.662 413.388992,17.3939927 414.997,18.858 C416.605008,20.3220073 417.480999,22.4219863 417.625,25.158 C417.673,25.6860026 417.697,26.2019975 417.697,26.706 C417.697,27.2100025 417.697,27.7259974 417.697,28.254 L417.697,35.238 L401.281,35.238 L401.281,37.542 C401.281,39.0780077 401.317,40.6739917 401.389,42.33 C401.461001,43.9860083 401.640999,45.2219959 401.929,46.038 C402.361002,47.2860062 403.056995,48.2699964 404.017,48.99 C404.977005,49.7100036 406.272992,50.07 407.905,50.07 C410.065011,50.07 411.660995,49.4460062 412.693,48.198 C413.725005,46.9499938 414.312999,45.4140091 414.457,43.59 L417.553,44.166 C417.312999,46.9980142 416.329009,49.1579926 414.601,50.646 C412.872992,52.1340074 410.641014,52.878 407.905,52.878 C406.464993,52.878 405.205006,52.6980018 404.125,52.338 C403.044995,51.9779982 402.145004,51.5100029 401.425,50.934 C400.704997,50.3579971 400.129002,49.6980037 399.697,48.954 C399.264998,48.2099963 398.953001,47.4300041 398.761,46.614 C398.616999,46.0379971 398.497001,45.2940046 398.401,44.382 C398.305,43.4699954 398.245,42.4980052 398.221,41.466 C398.197,40.4339948 398.173,39.3660055 398.149,38.262 C398.125,37.1579945 398.113,36.1260048 398.113,35.166 C398.113,33.8699935 398.125,32.5740065 398.149,31.278 C398.173,29.9819935 398.221,28.7580058 398.293,27.606 C398.365001,26.4539942 398.472999,25.3980048 398.617,24.438 C398.761001,23.4779952 398.928999,22.7100029 399.121,22.134 C399.745003,20.4539916 400.776993,19.1220049 402.217,18.138 C403.657007,17.1539951 405.672987,16.662 408.265,16.662 L408.265,16.662 Z M402.073,23.286 C401.736998,24.1020041 401.533001,25.313992 401.461,26.922 C401.389,28.530008 401.329,30.437989 401.281,32.646 L414.601,32.646 L414.601,28.254 C414.601,27.1499945 414.541001,26.0700053 414.421,25.014 C414.301,23.9579947 414.013002,23.0220041 413.557,22.206 C413.100998,21.3899959 412.441004,20.7420024 411.577,20.262 C410.712996,19.7819976 409.561007,19.542 408.121,19.542 C406.920994,19.542 405.769006,19.8059974 404.665,20.334 C403.560995,20.8620026 402.697003,21.8459928 402.073,23.286 L402.073,23.286 Z M424.825,59.142 L422.953,59.142 L424.321,52.518 L423.385,52.518 L423.385,48.558 L427.201,48.558 L427.201,52.446 L424.825,59.142 Z M463.057,26.022 C465.361012,26.7900038 466.932996,28.2299894 467.773,30.342 C468.613004,32.4540106 469.033,34.9499856 469.033,37.83 C469.033,40.4700132 468.745003,42.7139908 468.169,44.562 C467.592997,46.4100092 466.765006,47.9099942 465.685,49.062 C464.604995,50.2140058 463.309008,51.0539974 461.797,51.582 C460.284993,52.1100026 458.56901,52.374 456.649,52.374 L446.209,52.374 L446.209,2.262 L456.721,2.262 C458.881011,2.262 460.716993,2.53799724 462.229,3.09 C463.741008,3.64200276 464.952996,4.4579946 465.865,5.538 C466.777005,6.6180054 467.436998,7.92599232 467.845,9.462 C468.253002,10.9980077 468.457,12.7499902 468.457,14.718 C468.457,17.310013 468.097004,19.5659904 467.377,21.486 C466.656997,23.4060096 465.217011,24.869995 463.057,25.878 L463.057,26.022 Z M466.009,37.614 C466.009,34.3019834 465.349007,31.746009 464.029,29.946 C462.708994,28.145991 460.609015,27.246 457.729,27.246 L449.305,27.246 L449.305,49.494 L456.721,49.494 C458.59301,49.494 460.140994,49.1700032 461.365,48.522 C462.589006,47.8739968 463.536997,47.0100054 464.209,45.93 C464.881004,44.8499946 465.348999,43.5900072 465.613,42.15 C465.877001,40.7099928 466.009,39.1980079 466.009,37.614 L466.009,37.614 Z M465.433,14.718 C465.433,11.5979844 464.737007,9.21000828 463.345,7.554 C461.952993,5.89799172 459.553017,5.07 456.145,5.07 L449.305,5.07 L449.305,24.582 L457.369,24.582 C460.393015,24.582 462.492994,23.7300085 463.669,22.026 C464.845006,20.3219915 465.433,17.8860158 465.433,14.718 L465.433,14.718 Z M484.657,16.662 C487.297013,16.662 489.312993,17.165995 490.705,18.174 C492.097007,19.182005 493.056998,20.4539923 493.585,21.99 C493.825001,22.6140031 494.005,23.4419948 494.125,24.474 C494.245001,25.5060052 494.341,26.6339939 494.413,27.858 C494.485001,29.0820061 494.521,30.3299936 494.521,31.602 C494.521,32.8740064 494.521,34.0619945 494.521,35.166 L494.521,36.246 C494.521,37.4940062 494.509,38.7659935 494.485,40.062 C494.461,41.3580065 494.377001,42.7739923 494.233,44.31 C494.088999,45.9900084 493.693003,47.3819945 493.045,48.486 C492.396997,49.5900055 491.605005,50.4659968 490.669,51.114 C489.732995,51.7620032 488.713006,52.2179987 487.609,52.482 C486.504995,52.7460013 485.425005,52.878 484.369,52.878 C481.488986,52.878 479.341007,52.2900059 477.925,51.114 C476.508993,49.9379941 475.537003,48.4380091 475.009,46.614 C474.864999,46.0379971 474.745001,45.3060044 474.649,44.418 C474.553,43.5299956 474.481,42.5580053 474.433,41.502 C474.385,40.4459947 474.361,39.3660055 474.361,38.262 L474.361,35.166 C474.361,33.8699935 474.373,32.5860064 474.397,31.314 C474.421,30.0419936 474.469,28.8300058 474.541,27.678 C474.613001,26.5259942 474.720999,25.4820047 474.865,24.546 C475.009001,23.6099953 475.176999,22.8540029 475.369,22.278 C475.993003,20.5979916 477.048993,19.2420052 478.537,18.21 C480.025008,17.1779948 482.064987,16.662 484.657,16.662 L484.657,16.662 Z M484.585,19.47 C483.336994,19.47 482.137006,19.7219975 480.985,20.226 C479.832994,20.7300025 478.969003,21.7019928 478.393,23.142 C478.008998,24.1020048 477.769001,25.6019898 477.673,27.642 C477.577,29.6820102 477.529,32.0459866 477.529,34.734 L477.529,36.534 C477.529,38.8380115 477.565,40.7819921 477.637,42.366 C477.709001,43.9500079 477.888999,45.1739957 478.177,46.038 C478.609002,47.3340065 479.340995,48.3299965 480.373,49.026 C481.405005,49.7220035 482.808991,50.07 484.585,50.07 C486.169008,50.07 487.536994,49.6380043 488.689,48.774 C489.841006,47.9099957 490.608998,46.7100077 490.993,45.174 C491.185001,44.3579959 491.317,43.0620089 491.389,41.286 C491.461001,39.5099911 491.497,37.6140101 491.497,35.598 C491.497,34.5419947 491.485,33.414006 491.461,32.214 C491.437,31.013994 491.413,29.8620055 491.389,28.758 C491.365,27.6539945 491.305001,26.6580044 491.209,25.77 C491.113,24.8819956 490.993001,24.1980024 490.849,23.718 C490.416998,22.2779928 489.637006,21.2100035 488.509,20.514 C487.380995,19.8179965 486.073008,19.47 484.585,19.47 L484.585,19.47 Z M509.785,16.662 C512.425013,16.662 514.440993,17.165995 515.833,18.174 C517.225007,19.182005 518.184998,20.4539923 518.713,21.99 C518.953001,22.6140031 519.133,23.4419948 519.253,24.474 C519.373001,25.5060052 519.469,26.6339939 519.541,27.858 C519.613001,29.0820061 519.649,30.3299936 519.649,31.602 L519.649,35.166 L519.649,36.246 C519.649,37.4940062 519.637,38.7659935 519.613,40.062 C519.589,41.3580065 519.505001,42.7739923 519.361,44.31 C519.216999,45.9900084 518.821003,47.3819945 518.173,48.486 C517.524997,49.5900055 516.733005,50.4659968 515.797,51.114 C514.860995,51.7620032 513.841006,52.2179987 512.737,52.482 C511.632995,52.7460013 510.553005,52.878 509.497,52.878 C506.616986,52.878 504.469007,52.2900059 503.053,51.114 C501.636993,49.9379941 500.665003,48.4380091 500.137,46.614 C499.992999,46.0379971 499.873001,45.3060044 499.777,44.418 C499.681,43.5299956 499.609,42.5580053 499.561,41.502 C499.513,40.4459947 499.489,39.3660055 499.489,38.262 L499.489,35.166 C499.489,33.8699935 499.501,32.5860064 499.525,31.314 C499.549,30.0419936 499.597,28.8300058 499.669,27.678 C499.741001,26.5259942 499.848999,25.4820047 499.993,24.546 C500.137001,23.6099953 500.304999,22.8540029 500.497,22.278 C501.121003,20.5979916 502.176993,19.2420052 503.665,18.21 C505.153008,17.1779948 507.192987,16.662 509.785,16.662 L509.785,16.662 Z M509.713,19.47 C508.464994,19.47 507.265006,19.7219975 506.113,20.226 C504.960994,20.7300025 504.097003,21.7019928 503.521,23.142 C503.136998,24.1020048 502.897001,25.6019898 502.801,27.642 C502.705,29.6820102 502.657,32.0459866 502.657,34.734 L502.657,36.534 C502.657,38.8380115 502.693,40.7819921 502.765,42.366 C502.837001,43.9500079 503.016999,45.1739957 503.305,46.038 C503.737002,47.3340065 504.468995,48.3299965 505.501,49.026 C506.533005,49.7220035 507.936991,50.07 509.713,50.07 C511.297008,50.07 512.664994,49.6380043 513.817,48.774 C514.969006,47.9099957 515.736998,46.7100077 516.121,45.174 C516.313001,44.3579959 516.445,43.0620089 516.517,41.286 C516.589001,39.5099911 516.625,37.6140101 516.625,35.598 C516.625,34.5419947 516.613,33.414006 516.589,32.214 C516.565,31.013994 516.541,29.8620055 516.517,28.758 C516.493,27.6539945 516.433001,26.6580044 516.337,25.77 C516.241,24.8819956 516.121001,24.1980024 515.977,23.718 C515.544998,22.2779928 514.765006,21.2100035 513.637,20.514 C512.508995,19.8179965 511.201008,19.47 509.713,19.47 L509.713,19.47 Z M528.289,37.974 L528.361,37.974 L541.393,17.238 L544.849,17.238 L536.641,30.198 L546.793,52.374 L543.337,52.374 L534.697,33.078 L528.289,43.23 L528.289,52.374 L525.265,52.374 L525.265,0.102 L528.289,0.102 L528.289,37.974 Z M568.393,52.374 L565.369,52.374 L578.833,4.998 L565.369,4.998 L565.369,11.19 L562.633,11.19 L562.633,2.262 L581.929,2.262 L581.929,4.854 L568.393,52.374 Z M597.769,4.71 C596.088992,4.71 594.613007,5.33399376 593.341,6.582 C592.068994,7.83000624 591.433,9.94198512 591.433,12.918 L588.409,12.414 C588.505001,8.86198224 589.380992,6.21000876 591.037,4.458 C592.693008,2.70599124 594.984986,1.83 597.913,1.83 C601.273017,1.83 603.684993,2.80199028 605.149,4.746 C606.613007,6.69000972 607.345,9.24598416 607.345,12.414 C607.345,14.7180115 607.129002,16.7099916 606.697,18.39 C606.264998,20.0700084 605.593005,21.7979911 604.681,23.574 L591.793,49.494 L606.913,49.494 L606.913,52.374 L588.409,52.374 L588.409,49.494 L602.233,21.702 C603.001004,20.1659923 603.504999,18.6540074 603.745,17.166 C603.985001,15.6779926 604.105,14.0940084 604.105,12.414 C604.105,11.4539952 604.021001,10.5060047 603.853,9.57 C603.684999,8.63399532 603.373002,7.8060036 602.917,7.086 C602.460998,6.3659964 601.825004,5.79000216 601.009,5.358 C600.192996,4.92599784 599.113007,4.71 597.769,4.71 L597.769,4.71 Z M623.185,19.686 C621.024989,19.686 619.297007,20.381993 618.001,21.774 C616.704994,23.166007 616.057,24.9899887 616.057,27.246 L616.057,41.79 C616.057,42.8460053 616.200999,43.8659951 616.489,44.85 C616.777002,45.8340049 617.208997,46.6979963 617.785,47.442 C618.361003,48.1860037 619.080996,48.7859977 619.945,49.242 C620.809004,49.6980023 621.816994,49.926 622.969,49.926 C624.409007,49.926 625.680995,49.5420038 626.785,48.774 C627.889006,48.0059962 628.632998,46.8780074 629.017,45.39 C629.161001,44.9099976 629.269,44.2500042 629.341,43.41 C629.413001,42.5699958 629.473,41.6340052 629.521,40.602 C629.569,39.5699948 629.593,38.4900056 629.593,37.362 L629.593,34.014 C629.593,31.7579887 629.557001,29.7540088 629.485,28.002 C629.413,26.2499912 629.257001,24.9660041 629.017,24.15 C628.536998,22.4699916 627.817005,21.3060032 626.857,20.658 C625.896995,20.0099968 624.673008,19.686 623.185,19.686 L623.185,19.686 Z M623.905,16.734 C624.769004,16.734 625.680995,16.8539988 626.641,17.094 C627.601005,17.3340012 628.488996,17.7659969 629.305,18.39 C630.121004,19.0140031 630.828997,19.8659946 631.429,20.946 C632.029003,22.0260054 632.400999,23.4059916 632.545,25.086 C632.689001,26.6220077 632.773,28.0979929 632.797,29.514 C632.821,30.9300071 632.833,32.3099933 632.833,33.654 L632.833,34.662 C632.833,37.3980137 632.785001,39.8459892 632.689,42.006 C632.593,44.1660108 632.281003,46.0139923 631.753,47.55 C631.224998,49.0380074 630.325007,50.2979948 629.053,51.33 C627.780994,52.3620052 625.897013,52.878 623.401,52.878 C621.480991,52.878 619.897006,52.4340044 618.649,51.546 C617.400994,50.6579956 616.585002,49.7820043 616.201,48.918 L616.057,48.918 L616.057,66.342 L613.033,66.342 L613.033,17.238 L616.057,17.238 L616.057,20.55 L616.201,20.55 C617.017004,19.349994 618.012994,18.4140034 619.189,17.742 C620.365006,17.0699966 621.93699,16.734 623.905,16.734 L623.905,16.734 Z M636.793,17.166 L640.825,17.166 L640.825,7.518 L643.921,7.518 L643.921,17.166 L649.249,17.166 L649.249,19.686 L643.921,19.686 L643.921,44.094 C643.921,45.8700089 644.292996,47.2259953 645.037,48.162 C645.781004,49.0980047 647.040991,49.566 648.817,49.566 L649.609,49.566 L649.609,52.374 L648.241,52.374 C643.296975,52.374 640.825,49.7340264 640.825,44.454 L640.825,19.686 L636.793,19.686 L636.793,17.166 Z" id="SHARP" fill="#000000" sketch:type="MSShapeGroup"></path>
                <path d="M11.265,1.542 C3.849,1.614 0.537,6.51 0.537,14.07 C0.537,28.11 18.753,28.326 18.753,40.422 C18.753,45.822 16.665,49.71 11.121,49.71 C5.577,49.71 3.489,45.822 3.489,40.422 L3.489,37.614 L0.321,37.614 L0.321,40.206 C0.321,47.478 3.489,52.806 11.193,52.806 C18.897,52.806 22.065,47.478 22.065,40.206 C22.065,26.31 3.849,26.094 3.849,13.854 C3.849,8.526 5.865,4.566 11.337,4.566 C16.809,4.566 18.825,8.598 18.825,13.926 L18.825,15.222 L21.993,15.222 L21.993,14.142 C21.993,6.87 18.897,1.542 11.265,1.542 L11.265,1.542 Z M44.701,28.686 L44.701,52.374 L48.085,52.374 L48.085,1.974 L44.701,1.974 L44.701,25.662 L29.005,25.662 L29.005,1.974 L25.693,1.974 L25.693,52.374 L29.005,52.374 L29.005,28.686 L44.701,28.686 Z M72.965,41.214 L75.485,52.374 L78.797,52.374 L67.565,1.902 L62.741,1.902 L51.725,52.374 L54.749,52.374 L57.269,41.214 L72.965,41.214 Z M65.045,5.718 L72.461,38.334 L57.773,38.334 L65.045,5.718 Z M82.037,1.974 L82.037,52.374 L85.349,52.374 L85.349,29.838 L90.605,29.838 C96.365,29.838 100.037,31.71 100.037,38.406 L100.037,46.326 C100.037,49.062 100.253,50.862 101.117,52.374 L104.573,52.374 C103.493,50.718 103.349,48.414 103.349,46.326 L103.349,38.478 C103.349,33.006 101.261,29.334 96.077,28.182 C101.045,27.03 103.349,23.646 103.349,17.742 L103.349,13.35 C103.349,6.222 100.253,1.974 92.549,1.974 L82.037,1.974 Z M85.349,26.814 L85.349,4.998 L92.477,4.998 C97.949,4.998 100.037,8.238 100.037,13.638 L100.037,18.39 C100.037,25.158 96.581,26.814 90.677,26.814 L85.349,26.814 Z M108.529,1.974 L108.529,52.374 L111.841,52.374 L111.841,31.638 L118.105,31.638 C126.097,31.638 129.769,27.678 129.769,19.686 L129.769,14.214 C129.769,6.87 126.745,1.974 118.969,1.974 L108.529,1.974 Z M111.841,28.614 L111.841,4.998 L118.969,4.998 C124.585,4.998 126.457,8.526 126.457,13.998 L126.457,19.902 C126.457,26.022 123.937,28.614 118.105,28.614 L111.841,28.614 Z" id="SHARP" fill="#FF6B6B" sketch:type="MSShapeGroup"></path>
            </g>
        </g>
    </g>
</svg>